<svg width="829" height="522" viewBox="0 0 829 522" fill="none" xmlns="http://www.w3.org/2000/svg">
<path d="M400.391 311.565L394.002 308.01L395.422 297.524L404.651 304.1L400.391 311.565Z" fill="#F26424"/>
<path d="M600.763 346.4L594.906 341.957L597.568 331.826L606.087 339.646L600.763 346.4Z" fill="#F26424"/>
<path d="M637.146 257.357L634.129 250.603L641.406 243.138L644.955 253.98L637.146 257.357Z" fill="#F26424"/>
<path d="M588.162 269.62L583.725 263.755L589.226 254.868L595.083 264.643L588.162 269.62Z" fill="#F26424"/>
<path d="M718.787 212.923L715.77 206.169L723.224 198.882L726.596 209.724L718.787 212.923Z" fill="#F26424"/>
<path d="M691.986 352.621L694.471 345.689L705.12 345.867L699.618 355.82L691.986 352.621Z" fill="#F26424"/>
<path d="M670.334 411.451L664.832 406.474L668.914 396.876L676.191 405.585L670.334 411.451Z" fill="#F26424"/>
<path d="M798.652 255.046L795.457 248.47L802.556 240.827L806.461 251.669L798.652 255.046Z" fill="#F26424"/>
<path d="M773.981 403.986L769.012 398.476L773.804 389.056L780.37 398.476L773.981 403.986Z" fill="#F26424"/>
<path d="M724.642 472.768L717.366 473.834L712.396 464.77L723.755 464.415L724.642 472.768Z" fill="#F26424"/>
<path d="M825.451 215.589L818.707 212.746L819.239 202.26L829.001 207.947L825.451 215.589Z" fill="#F26424"/>
<path d="M299.228 98.286L291.951 96.6864L290.709 86.2002L301.358 90.288L299.228 98.286Z" fill="#F26424"/>
<path d="M209.78 107.884L203.213 104.329L204.455 94.0205L213.862 100.419L209.78 107.884Z" fill="#F26424"/>
<path d="M217.765 35.191L211.908 30.9254L214.748 20.7947L223.089 28.6149L217.765 35.191Z" fill="#F26424"/>
<path d="M109.858 12.7967L102.937 10.4862L102.404 0L112.698 4.79877L109.858 12.7967Z" fill="#F26424"/>
<path d="M158.311 243.138L160.618 250.069L152.454 256.646L150.324 245.448L158.311 243.138Z" fill="#F26424"/>
<path d="M66.1994 214.878L61.0526 220.21L51.4688 215.945L60.3427 208.835L66.1994 214.878Z" fill="#F26424"/>
<path d="M173.219 311.209L177.833 317.075L172.331 325.961L166.297 316.364L173.219 311.209Z" fill="#F26424"/>
<path d="M106.309 347.111L109.149 353.865L101.162 360.974L98.5 349.777L106.309 347.111Z" fill="#F26424"/>
<path d="M183.158 450.552L175.704 451.618L170.734 442.376L182.27 442.021L183.158 450.552Z" fill="#F26424"/>
<path d="M261.958 389.945L254.858 391.9L248.824 383.191L260.183 381.769L261.958 389.945Z" fill="#F26424"/>
<path d="M427.9 189.107L424.705 182.353L432.159 174.889L435.709 185.73L427.9 189.107Z" fill="#F26424"/>
<path d="M463.572 302.5L459.49 296.28L465.524 287.749L470.671 297.879L463.572 302.5Z" fill="#F26424"/>
<path d="M55.018 441.132L47.5639 441.665L43.127 432.245L54.4856 432.601L55.018 441.132Z" fill="#F26424"/>
<path d="M780.371 106.817L773.094 108.061L767.947 98.8191L779.306 98.4636L780.371 106.817Z" fill="#F26424"/>
<path d="M55.7288 308.01L55.1963 315.297L45.0801 318.141L47.3873 306.944L55.7288 308.01Z" fill="#F26424"/>
<path d="M11.891 330.76L10.4712 338.047L0 339.469L3.72704 328.627L11.891 330.76Z" fill="#F26424"/>
<path d="M28.3974 312.809L27.1551 320.096L16.8613 322.051L20.0559 311.032L28.3974 312.809Z" fill="#F26424"/>
<path d="M652.763 496.94L647.262 493.03L649.924 483.788L662.17 488.764L652.763 496.94Z" fill="#FCC60E"/>
<path d="M682.049 522L676.547 518.267L679.032 509.025L691.278 513.646L682.049 522Z" fill="#FCC60E"/>
<path d="M724.643 358.486L718.432 356.176V346.578L731.565 348.178L724.643 358.486Z" fill="#FCC60E"/>
<path d="M705.652 293.614L699.085 292.725L697.133 283.305L710.266 282.061L705.652 293.614Z" fill="#FCC60E"/>
<path d="M667.85 285.794L661.461 284.016L660.396 274.596H673.53L667.85 285.794Z" fill="#FCC60E"/>
<path d="M675.127 320.629L668.915 318.496L668.561 308.899L681.694 309.965L675.127 320.629Z" fill="#FCC60E"/>
<path d="M622.592 240.294L616.381 237.984L616.203 228.386L629.337 229.808L622.592 240.294Z" fill="#FCC60E"/>
<path d="M772.208 210.257L765.463 210.613L761.736 201.904L774.337 198.172L772.208 210.257Z" fill="#FCC60E"/>
<path d="M795.457 302.5L788.89 302.323L785.873 293.258L798.651 290.415L795.457 302.5Z" fill="#FCC60E"/>
<path d="M527.642 259.311L521.075 258.423L518.945 249.181L531.901 247.759L527.642 259.311Z" fill="#FCC60E"/>
<path d="M540.776 300.901L534.032 300.19L531.902 290.77L545.036 289.348L540.776 300.901Z" fill="#FCC60E"/>
<path d="M418.493 224.12L411.749 223.41L409.441 214.167L422.575 212.39L418.493 224.12Z" fill="#FCC60E"/>
<path d="M404.827 272.997L398.083 272.286L395.775 263.044L408.909 261.267L404.827 272.997Z" fill="#FCC60E"/>
<path d="M428.61 255.224L422.044 254.513L419.736 245.271L432.692 243.493L428.61 255.224Z" fill="#FCC60E"/>
<path d="M266.217 243.849L263.555 237.806L270.476 231.23L278.463 241.538L266.217 243.849Z" fill="#FCC60E"/>
<path d="M190.611 220.921L192.919 214.701H202.502L200.905 227.853L190.611 220.921Z" fill="#FCC60E"/>
<path d="M86.4311 211.146L86.0762 204.57L94.7726 200.838L98.6771 213.457L86.4311 211.146Z" fill="#FCC60E"/>
<path d="M98.8555 257.001L100.453 250.603L110.037 249.536L109.859 262.866L98.8555 257.001Z" fill="#FCC60E"/>
<path d="M53.5993 259.667L52.002 253.091L59.811 247.759L66.0227 259.311L53.5993 259.667Z" fill="#FCC60E"/>
<path d="M16.8595 224.831L11.5352 220.744L14.3748 211.679L26.4433 217.011L16.8595 224.831Z" fill="#FCC60E"/>
<path d="M141.983 415.36L138.078 409.851L143.225 402.031L153.341 410.384L141.983 415.36Z" fill="#FCC60E"/>
<path d="M116.958 448.419L110.746 446.108L110.568 436.511L123.702 437.933L116.958 448.419Z" fill="#FCC60E"/>
<path d="M150.856 469.924L144.467 467.792L144.289 458.194L157.422 459.438L150.856 469.924Z" fill="#FCC60E"/>
<path d="M195.58 443.264L190.256 439.177L192.741 430.112L204.987 435.089L195.58 443.264Z" fill="#FCC60E"/>
<path d="M58.3895 47.6322L51.8228 46.9213L49.5156 37.6792L62.4715 35.9019L58.3895 47.6322Z" fill="#FCC60E"/>
<path d="M55.1962 106.995L48.6295 106.284L46.3223 97.042L59.2782 95.2646L55.1962 106.995Z" fill="#FCC60E"/>
<path d="M128.671 64.5167L122.104 63.8058L119.797 54.5637L132.753 52.7864L128.671 64.5167Z" fill="#FCC60E"/>
<path d="M56.6704 418L54.3661 398.062L34.3047 395.503L52.6039 386.342L48.9441 367.482L63.1768 381.088L80.2561 372.736L71.4454 389.575L85.0003 403.855L66.0234 400.083L56.6704 418Z" fill="#FFA608"/>
<path d="M32 394.021C33.491 393.078 34.9821 392.269 36.3376 391.461L40.8107 388.902C43.7928 387.285 46.7749 385.668 49.8926 384.187L49.4859 384.995C48.9437 381.896 48.4015 378.663 47.8593 375.565C47.3171 372.332 46.9105 369.233 46.6394 366C47.5882 369.098 48.266 372.197 48.9437 375.295C49.6215 378.394 50.2992 381.627 50.8414 384.725C50.977 385.13 50.7059 385.399 50.4348 385.534C47.4527 387.016 44.335 388.497 41.2174 389.845L36.6087 391.865C35.1176 392.674 33.6266 393.347 32 394.021Z" fill="#231F20"/>
<path d="M54.2302 416.518C53.5524 413.285 53.0102 409.917 52.468 406.684C51.9258 403.451 51.5192 400.083 51.1125 396.715L51.7903 397.389C48.4015 396.984 45.1483 396.446 41.8951 395.907L36.8798 395.098C35.2532 394.694 33.6266 394.425 32 394.021C33.6266 394.021 35.3887 394.155 37.0153 394.29L42.0307 394.694C45.4194 394.964 48.6726 395.368 52.0614 395.772C52.468 395.772 52.7391 396.176 52.7391 396.446C53.1458 399.814 53.4169 403.047 53.688 406.415C53.9591 409.782 54.2302 413.15 54.2302 416.518Z" fill="#231F20"/>
<path d="M82.696 402.373C79.4428 402.104 76.3251 401.565 73.0719 401.026C69.8187 400.487 66.7011 399.948 63.5834 399.275L64.3967 398.871C62.7701 401.834 61.2791 404.798 59.5169 407.762L56.9415 412.207C55.9926 413.689 55.1793 415.036 54.2305 416.518C54.9082 414.902 55.586 413.42 56.2637 411.803L58.4325 407.223C59.9236 404.125 61.4146 401.161 63.0412 398.197C63.1768 397.928 63.5834 397.658 63.8545 397.793C66.9722 398.466 70.2254 399.14 73.343 399.948C76.4607 400.622 79.5783 401.43 82.696 402.373Z" fill="#231F20"/>
<path d="M77.9506 371.254C75.5107 377.181 72.7997 382.839 69.8176 388.497L69.682 387.554C71.9864 389.979 74.1552 392.404 76.324 394.829C77.4084 396.041 78.4928 397.254 79.5772 398.601C80.6616 399.948 81.6104 401.161 82.6948 402.508C81.4749 401.43 80.2549 400.352 79.035 399.14C77.815 398.062 76.5951 396.85 75.5107 395.772C73.2063 393.482 70.902 391.057 68.5976 388.767C68.3265 388.497 68.3265 388.093 68.4621 387.824C71.4442 382.031 74.4263 376.508 77.9506 371.254Z" fill="#231F20"/>
<path d="M46.6387 366C47.9942 366.943 49.2141 368.155 50.4341 369.098C51.654 370.176 52.874 371.254 54.0939 372.332C56.5338 374.487 58.9737 376.777 61.2781 379.067L60.4648 378.933C66.1579 376.104 71.9865 373.409 77.9507 371.119C72.5287 374.487 66.8356 377.451 61.1425 380.28C60.8714 380.415 60.4648 380.415 60.1937 380.145C57.8893 377.855 55.4494 375.565 53.2806 373.14C52.1962 371.927 50.9763 370.715 49.8919 369.503C48.8075 368.425 47.7231 367.212 46.6387 366Z" fill="#231F20"/>
<path d="M775.95 53.3301L788.451 41.8596L780.247 26.8614L795.596 34.8379L806.686 22.9746L804.438 39.4659L818.629 47.0087L802.733 49.3356L799.688 65.6973L792.852 50.8395L775.95 53.3301Z" fill="#FFA608"/>
<path d="M780.118 24.5491C781.503 25.1015 782.796 25.7207 784.022 26.2472L787.993 28.0381C790.579 29.2766 793.165 30.515 795.727 31.9131L794.972 32.0359C796.823 30.1274 798.766 28.152 800.618 26.2434C802.561 24.268 804.479 22.4522 806.557 20.6623C804.908 22.8492 803.124 24.8505 801.34 26.8518C799.556 28.8531 797.68 30.9213 795.829 32.8298C795.619 33.1231 795.3 33.0713 795.074 32.9526C792.58 31.6473 790.019 30.2492 787.55 28.7843L783.88 26.6333C782.587 26.014 781.386 25.3279 780.118 24.5491Z" fill="#231F20"/>
<path d="M775.755 50.9251C777.631 48.8569 779.667 46.8147 781.61 44.8393C783.554 42.8638 785.657 40.9144 787.76 38.9649L787.635 39.7629C786.23 37.2434 784.984 34.7498 783.739 32.2563L781.803 28.4231C781.273 27.1095 780.65 25.8627 780.119 24.5491C780.926 25.6622 781.709 26.9349 782.424 28.1148L784.636 31.7474C786.133 34.2 787.471 36.6267 788.876 39.1462C789.077 39.4245 788.935 39.8106 788.751 39.9442C786.648 41.8937 784.57 43.6836 782.4 45.5404C780.23 47.3971 778.06 49.2538 775.755 50.9251Z" fill="#231F20"/>
<path d="M799.558 63.385C798.128 61.0251 796.95 58.6243 795.704 56.1307C794.459 53.6371 793.281 51.2363 792.194 48.7686L792.875 49.1246C790.039 49.4822 787.271 49.9325 784.369 50.1974L780.049 50.641C778.564 50.727 777.238 50.839 775.753 50.925C777.196 50.5866 778.546 50.3151 779.989 49.9767L784.199 49.1879C787.06 48.6707 789.828 48.2204 792.663 47.8628C792.914 47.8219 793.301 47.9664 793.343 48.2188C794.429 50.6865 795.582 53.2469 796.576 55.7814C797.663 58.2491 798.656 60.7836 799.558 63.385Z" fill="#231F20"/>
<path d="M818.501 44.6963C813.234 45.968 808.017 46.9205 802.665 47.6875L803.243 47.1268C802.727 49.907 802.144 52.5944 801.561 55.2818C801.269 56.6255 800.978 57.9691 800.594 59.3797C800.21 60.7902 799.851 62.0412 799.468 63.4517C799.6 62.0821 799.732 60.7125 799.956 59.2761C800.088 57.9065 800.313 56.47 800.512 55.1931C800.936 52.4798 801.452 49.6997 801.875 46.9864C801.925 46.6672 802.202 46.4666 802.453 46.4257C807.897 45.5918 813.157 44.8917 818.501 44.6963Z" fill="#231F20"/>
<path d="M806.557 20.6624C806.584 22.0579 806.36 23.4943 806.32 24.7971C806.188 26.1667 806.055 27.5363 805.923 28.9059C805.659 31.6451 805.303 34.4512 804.879 37.1645L804.568 36.5411C809.329 39.0331 814.065 41.6847 818.591 44.6296C813.596 42.5905 808.743 40.1654 803.982 37.6734C803.755 37.5547 803.554 37.2764 803.603 36.9572C804.027 34.2439 804.384 31.4379 804.967 28.7505C805.258 27.4068 805.483 25.9703 805.774 24.6266C805.973 23.3498 806.265 22.0061 806.557 20.6624Z" fill="#231F20"/>
</svg>
