<svg width="70" height="57" viewBox="0 0 70 57" fill="none" xmlns="http://www.w3.org/2000/svg">
<path d="M30.9566 52.3198V52.1698H30.8066H30.6034H30.4534V52.3198V54.2313H27.9079V52.3198V52.1698H27.7579H27.5547H27.4047V52.3198V56.646V56.796H27.5547H27.7579H27.9079V56.646V54.7345H30.4534V56.646V56.796H30.6034H30.8066H30.9566V56.646V52.3198Z" fill="white" stroke="white" stroke-width="0.3"/>
<path d="M33.8261 53.0574L34.5366 54.9003H33.1156L33.8261 53.0574ZM32.3163 56.7682H32.4194L32.4563 56.6719L32.9421 55.4036H34.7391L35.2249 56.6719L35.2618 56.7682H35.3649H35.5972H35.8152L35.7373 56.5646L34.0823 52.2384L34.0454 52.142H33.9422H33.739H33.6358L33.5989 52.2384L31.9439 56.5646L31.866 56.7682H32.084H32.3163Z" fill="white" stroke="white" stroke-width="0.3"/>
<path d="M41.1189 52.3208V52.1708H40.9689H40.7947H40.7135L40.6691 52.2387L38.8783 54.9791L37.0876 52.2387L37.0432 52.1708H36.962H36.7588H36.6088V52.3208V56.647V56.797H36.7588H36.962H37.112V56.647V53.2293L38.6658 55.5969L38.7103 55.6646H38.7912H38.9364H39.0174L39.0618 55.5969L40.6156 53.2293V56.647V56.797H40.7656H40.9689H41.1189V56.647V52.3208Z" fill="white" stroke="white" stroke-width="0.3"/>
<path d="M42.798 56.797H42.948V56.647V55.113H44.1336C45.0187 55.113 45.7063 54.5044 45.7063 53.6274C45.7063 53.1941 45.5367 52.8265 45.2502 52.5686C44.9649 52.3119 44.572 52.1708 44.1336 52.1708H42.5947H42.4447V52.3208V56.647V56.797H42.5947H42.798ZM44.1626 52.674C44.4826 52.674 44.7418 52.7672 44.919 52.9261C45.0942 53.0832 45.2031 53.3166 45.2031 53.6274C45.2031 53.9329 45.0836 54.1672 44.8991 54.327C44.7124 54.4889 44.4512 54.5807 44.1626 54.5807H42.977V52.674H44.1626Z" fill="white" stroke="white" stroke-width="0.3"/>
<path d="M49.7661 56.7682H49.9161V56.6182V56.415V56.3569V56.2069H49.7661H47.2739V54.6777H49.5628H49.7128V54.5277V54.3244V54.1744H49.5628H47.2739V52.6452H49.737H49.887V52.4952V52.292V52.142H49.737H46.8916H46.7416V52.292V56.6182V56.7682H46.8916H49.7661Z" fill="white" stroke="white" stroke-width="0.3"/>
<path d="M53.9035 56.7202L53.9465 56.797H54.0344H54.2957H54.5532L54.4262 56.5731L53.5237 54.9802C54.0157 54.7493 54.3586 54.2674 54.3586 53.6564C54.3586 52.7463 53.6377 52.1708 52.7859 52.1708H51.2471H51.0971V52.3208V56.647V56.797H51.2471H51.4503H51.6003V56.647V55.113H52.7859C52.7897 55.113 52.7935 55.113 52.7972 55.113C52.864 55.113 52.9315 55.113 52.9996 55.1041L53.9035 56.7202ZM52.7859 52.674C53.1059 52.674 53.3651 52.7672 53.5423 52.9261C53.7175 53.0832 53.8264 53.3166 53.8264 53.6274C53.8264 53.9355 53.7122 54.1694 53.5324 54.3278C53.3504 54.4882 53.0902 54.5807 52.7859 54.5807H51.6003V52.674H52.7859Z" fill="white" stroke="white" stroke-width="0.3"/>
<mask id="path-7-inside-1" fill="white">
<path d="M25.4927 49.4175C25.4927 49.3304 25.4637 49.2433 25.4637 49.1562C25.4347 48.953 25.4056 48.7497 25.3766 48.5465C25.3475 48.14 25.2895 47.6754 25.2314 47.2109C25.1153 45.9914 24.9411 42.7105 25.3766 38.3262C25.8121 33.9419 26.7703 28.5414 28.2801 23.1409C29.035 20.4406 29.9351 17.7694 30.9803 15.2434C31.2416 14.6046 31.503 13.9949 31.7933 13.3851C32.0837 12.7754 32.345 12.1657 32.6353 11.585C32.8386 11.1785 33.0418 10.772 33.2451 10.3945C33.3612 10.1913 33.4773 9.98803 33.5935 9.78479C34.4645 8.18786 35.2775 6.93936 35.7421 6.27156C36.7293 4.84884 37.5422 3.74551 38.3843 2.75832C38.5875 2.52604 38.7907 2.26473 39.023 2.03245C39.2553 1.80017 39.4876 1.56789 39.7199 1.33561C39.836 1.21947 39.9521 1.10333 40.0683 0.987189C40.1844 0.871049 40.3296 0.783945 40.4748 0.667805C40.7361 0.46456 41.0264 0.23228 41.3168 0C41.0264 0.203245 40.7071 0.40649 40.4167 0.5807C40.2715 0.667805 40.1264 0.75491 39.9812 0.842014C39.836 0.929119 39.7199 1.04526 39.5747 1.13236C39.3134 1.33561 39.023 1.50982 38.7617 1.71306C38.5004 1.91631 38.2391 2.11955 37.9778 2.3228C36.9325 3.13578 35.8872 4.12297 34.7258 5.48761C34.2032 6.12638 33.216 7.31682 32.1998 8.91374C32.0837 9.11699 31.9385 9.32023 31.7933 9.52347C31.561 9.92996 31.3288 10.3074 31.0674 10.7139C30.719 11.2946 30.3996 11.9043 30.0802 12.5141C29.7609 13.1238 29.4415 13.7626 29.1221 14.4014C27.9026 16.9564 26.8574 19.6857 25.9863 22.444C25.1153 25.2024 24.4475 27.9897 23.9829 30.6609C23.5183 33.3322 23.228 35.8582 23.0828 38.1229C22.9086 40.8813 22.9376 43.2621 23.0247 44.9752C22.8505 44.5977 22.7344 44.3655 22.6473 44.1912C22.5602 43.988 22.5312 43.9299 22.5312 43.9299C22.5312 43.9299 22.5021 43.8719 22.2698 43.3492C22.1537 43.0879 22.0085 42.7105 21.8053 42.1588C21.602 41.6071 21.3407 40.8813 21.1084 39.9231C21.1955 40.2135 21.1084 39.9812 20.9633 39.2843C20.9342 39.1101 20.8762 38.9069 20.8471 38.6456C20.8181 38.5294 20.8181 38.3843 20.7891 38.2681C20.7891 38.21 20.76 38.1229 20.76 38.0649V38.0068C21.544 38.0649 19.6857 37.9197 19.8599 37.9487V37.9778L19.8309 38.0649C19.6277 38.0649 19.5405 38.0358 19.8309 38.0649V38.0939C19.7728 38.4133 19.7148 38.7617 19.6567 39.1101C19.5986 39.4876 19.5696 39.8941 19.5115 40.3296C19.3663 42.0427 19.3663 44.2493 19.6567 46.7754C18.5243 44.0461 16.9855 41.3168 15.2434 38.8778C14.9821 38.5004 14.6917 38.1229 14.4014 37.7455C14.111 37.368 13.8207 37.0196 13.5593 36.6712C12.9786 35.9743 12.3689 35.3065 11.7882 34.6387C11.1785 34.029 10.5978 33.4483 10.0461 32.8966C9.81383 32.6934 9.58155 32.4901 9.3783 32.2869C8.94278 31.9094 8.56532 31.561 8.2169 31.2416C7.86848 30.9513 7.5491 30.719 7.31682 30.5448C6.9684 30.2545 6.61998 30.0222 6.30059 29.7609C5.95217 29.5286 5.63279 29.3253 5.34244 29.1221C5.02305 28.9188 4.7327 28.7446 4.44235 28.5414C4.152 28.3672 3.83262 28.193 3.5713 28.0478C3.28095 27.9026 2.9906 27.7284 2.70025 27.5832C2.4099 27.4381 2.11955 27.2639 1.8292 27.1187C1.2485 26.8283 0.63877 26.5089 0 26.1605C0.609735 26.567 1.19043 26.9445 1.71306 27.3219C2.23569 27.6994 2.72929 28.1349 3.22288 28.5414C3.4842 28.7446 3.74551 28.9479 3.97779 29.1802C4.23911 29.4124 4.47139 29.6447 4.76174 29.877C5.02305 30.1093 5.3134 30.3706 5.60375 30.6319C5.8941 30.8932 6.18445 31.1836 6.50384 31.503C6.70708 31.7062 6.99743 31.9675 7.31682 32.2579C7.6362 32.5773 7.98462 32.9547 8.36208 33.3322C8.56532 33.5354 8.76857 33.7387 8.97181 33.9709C9.49444 34.5516 10.0171 35.1614 10.5397 35.7711C11.0623 36.4389 11.614 37.1067 12.1366 37.8036C12.3979 38.152 12.6593 38.5294 12.9206 38.8778C13.1819 39.2263 13.4432 39.6037 13.6755 39.9812C15.6789 42.9718 17.3339 46.2527 18.6405 49.3885C19.2792 50.9564 19.8309 52.4953 20.2664 53.918C20.3245 54.0922 20.3826 54.2664 20.4406 54.4406C20.4987 54.6148 20.5277 54.789 20.5858 54.9632C20.6729 55.3116 20.76 55.6601 20.8471 55.9795C20.8762 56.1537 20.9342 56.2988 20.9633 56.473C20.9923 56.5602 20.9923 56.6473 21.0213 56.7053C21.602 56.6182 21.8343 56.5892 22.3279 56.5021V56.473C22.3279 56.3859 22.2989 56.2988 22.2989 56.2117C22.2698 56.0375 22.2408 55.8633 22.2118 55.6891C22.1537 55.3407 22.0956 54.9923 22.0376 54.6148C22.0085 54.4406 21.9795 54.2374 21.9505 54.0631C21.9214 53.8889 21.8633 53.6857 21.8343 53.5115C21.6311 52.5243 21.3698 51.479 21.0794 50.4338C20.8181 49.0982 20.6148 47.8497 20.4697 46.6883C20.1793 44.3945 20.2084 42.4201 20.3826 40.8232C20.5277 41.491 20.6729 42.0427 20.7891 42.4782C20.9633 43.0589 21.0794 43.4654 21.1955 43.7557C21.3988 44.3074 21.3988 44.3655 21.3988 44.3655C21.3988 44.3655 21.4278 44.4235 21.5149 44.6268C21.602 44.83 21.7182 45.2075 21.9505 45.7882C22.1827 46.3689 22.5312 47.1819 23.0247 48.2852C23.2861 48.8368 23.5764 49.4466 23.8958 50.1434L23.9248 50.1725C24.5636 49.9402 25.1733 49.7369 25.6379 49.5627V49.5337V49.4756L25.4927 49.4175Z"/>
</mask>
<path d="M25.4927 49.4175C25.4927 49.3304 25.4637 49.2433 25.4637 49.1562C25.4347 48.953 25.4056 48.7497 25.3766 48.5465C25.3475 48.14 25.2895 47.6754 25.2314 47.2109C25.1153 45.9914 24.9411 42.7105 25.3766 38.3262C25.8121 33.9419 26.7703 28.5414 28.2801 23.1409C29.035 20.4406 29.9351 17.7694 30.9803 15.2434C31.2416 14.6046 31.503 13.9949 31.7933 13.3851C32.0837 12.7754 32.345 12.1657 32.6353 11.585C32.8386 11.1785 33.0418 10.772 33.2451 10.3945C33.3612 10.1913 33.4773 9.98803 33.5935 9.78479C34.4645 8.18786 35.2775 6.93936 35.7421 6.27156C36.7293 4.84884 37.5422 3.74551 38.3843 2.75832C38.5875 2.52604 38.7907 2.26473 39.023 2.03245C39.2553 1.80017 39.4876 1.56789 39.7199 1.33561C39.836 1.21947 39.9521 1.10333 40.0683 0.987189C40.1844 0.871049 40.3296 0.783945 40.4748 0.667805C40.7361 0.46456 41.0264 0.23228 41.3168 0C41.0264 0.203245 40.7071 0.40649 40.4167 0.5807C40.2715 0.667805 40.1264 0.75491 39.9812 0.842014C39.836 0.929119 39.7199 1.04526 39.5747 1.13236C39.3134 1.33561 39.023 1.50982 38.7617 1.71306C38.5004 1.91631 38.2391 2.11955 37.9778 2.3228C36.9325 3.13578 35.8872 4.12297 34.7258 5.48761C34.2032 6.12638 33.216 7.31682 32.1998 8.91374C32.0837 9.11699 31.9385 9.32023 31.7933 9.52347C31.561 9.92996 31.3288 10.3074 31.0674 10.7139C30.719 11.2946 30.3996 11.9043 30.0802 12.5141C29.7609 13.1238 29.4415 13.7626 29.1221 14.4014C27.9026 16.9564 26.8574 19.6857 25.9863 22.444C25.1153 25.2024 24.4475 27.9897 23.9829 30.6609C23.5183 33.3322 23.228 35.8582 23.0828 38.1229C22.9086 40.8813 22.9376 43.2621 23.0247 44.9752C22.8505 44.5977 22.7344 44.3655 22.6473 44.1912C22.5602 43.988 22.5312 43.9299 22.5312 43.9299C22.5312 43.9299 22.5021 43.8719 22.2698 43.3492C22.1537 43.0879 22.0085 42.7105 21.8053 42.1588C21.602 41.6071 21.3407 40.8813 21.1084 39.9231C21.1955 40.2135 21.1084 39.9812 20.9633 39.2843C20.9342 39.1101 20.8762 38.9069 20.8471 38.6456C20.8181 38.5294 20.8181 38.3843 20.7891 38.2681C20.7891 38.21 20.76 38.1229 20.76 38.0649V38.0068C21.544 38.0649 19.6857 37.9197 19.8599 37.9487V37.9778L19.8309 38.0649C19.6277 38.0649 19.5405 38.0358 19.8309 38.0649V38.0939C19.7728 38.4133 19.7148 38.7617 19.6567 39.1101C19.5986 39.4876 19.5696 39.8941 19.5115 40.3296C19.3663 42.0427 19.3663 44.2493 19.6567 46.7754C18.5243 44.0461 16.9855 41.3168 15.2434 38.8778C14.9821 38.5004 14.6917 38.1229 14.4014 37.7455C14.111 37.368 13.8207 37.0196 13.5593 36.6712C12.9786 35.9743 12.3689 35.3065 11.7882 34.6387C11.1785 34.029 10.5978 33.4483 10.0461 32.8966C9.81383 32.6934 9.58155 32.4901 9.3783 32.2869C8.94278 31.9094 8.56532 31.561 8.2169 31.2416C7.86848 30.9513 7.5491 30.719 7.31682 30.5448C6.9684 30.2545 6.61998 30.0222 6.30059 29.7609C5.95217 29.5286 5.63279 29.3253 5.34244 29.1221C5.02305 28.9188 4.7327 28.7446 4.44235 28.5414C4.152 28.3672 3.83262 28.193 3.5713 28.0478C3.28095 27.9026 2.9906 27.7284 2.70025 27.5832C2.4099 27.4381 2.11955 27.2639 1.8292 27.1187C1.2485 26.8283 0.63877 26.5089 0 26.1605C0.609735 26.567 1.19043 26.9445 1.71306 27.3219C2.23569 27.6994 2.72929 28.1349 3.22288 28.5414C3.4842 28.7446 3.74551 28.9479 3.97779 29.1802C4.23911 29.4124 4.47139 29.6447 4.76174 29.877C5.02305 30.1093 5.3134 30.3706 5.60375 30.6319C5.8941 30.8932 6.18445 31.1836 6.50384 31.503C6.70708 31.7062 6.99743 31.9675 7.31682 32.2579C7.6362 32.5773 7.98462 32.9547 8.36208 33.3322C8.56532 33.5354 8.76857 33.7387 8.97181 33.9709C9.49444 34.5516 10.0171 35.1614 10.5397 35.7711C11.0623 36.4389 11.614 37.1067 12.1366 37.8036C12.3979 38.152 12.6593 38.5294 12.9206 38.8778C13.1819 39.2263 13.4432 39.6037 13.6755 39.9812C15.6789 42.9718 17.3339 46.2527 18.6405 49.3885C19.2792 50.9564 19.8309 52.4953 20.2664 53.918C20.3245 54.0922 20.3826 54.2664 20.4406 54.4406C20.4987 54.6148 20.5277 54.789 20.5858 54.9632C20.6729 55.3116 20.76 55.6601 20.8471 55.9795C20.8762 56.1537 20.9342 56.2988 20.9633 56.473C20.9923 56.5602 20.9923 56.6473 21.0213 56.7053C21.602 56.6182 21.8343 56.5892 22.3279 56.5021V56.473C22.3279 56.3859 22.2989 56.2988 22.2989 56.2117C22.2698 56.0375 22.2408 55.8633 22.2118 55.6891C22.1537 55.3407 22.0956 54.9923 22.0376 54.6148C22.0085 54.4406 21.9795 54.2374 21.9505 54.0631C21.9214 53.8889 21.8633 53.6857 21.8343 53.5115C21.6311 52.5243 21.3698 51.479 21.0794 50.4338C20.8181 49.0982 20.6148 47.8497 20.4697 46.6883C20.1793 44.3945 20.2084 42.4201 20.3826 40.8232C20.5277 41.491 20.6729 42.0427 20.7891 42.4782C20.9633 43.0589 21.0794 43.4654 21.1955 43.7557C21.3988 44.3074 21.3988 44.3655 21.3988 44.3655C21.3988 44.3655 21.4278 44.4235 21.5149 44.6268C21.602 44.83 21.7182 45.2075 21.9505 45.7882C22.1827 46.3689 22.5312 47.1819 23.0247 48.2852C23.2861 48.8368 23.5764 49.4466 23.8958 50.1434L23.9248 50.1725C24.5636 49.9402 25.1733 49.7369 25.6379 49.5627V49.5337V49.4756L25.4927 49.4175Z" fill="white" stroke="white" stroke-width="0.6" mask="url(#path-7-inside-1)"/>
<path d="M29.7968 35.8283L29.7968 35.8283C29.4633 36.3008 29.1867 36.9371 29.2144 37.7692L29.2146 37.7742H29.2145C29.2145 37.9861 29.2682 38.3181 29.3825 38.7474C29.525 39.1743 29.7212 39.6467 30.081 40.0895C30.4395 40.5308 30.9931 40.9183 31.6277 41.0841C31.9597 41.167 32.2917 41.1948 32.6533 41.1669C32.9985 41.1404 33.3227 41.0075 33.5994 40.8422C33.8742 40.6492 34.0674 40.4563 34.2645 40.2311C34.4395 40.027 34.609 39.8291 34.7494 39.6324C34.8979 39.4246 35.046 39.2468 35.1904 39.0735L35.1918 39.0719C35.2614 38.9883 35.3246 38.9042 35.386 38.8211C35.3951 38.8088 35.4042 38.7964 35.4133 38.7841C35.4647 38.7144 35.516 38.6448 35.5674 38.5806L35.5728 38.5738L35.573 38.574C35.6998 38.4331 35.8059 38.2987 35.8992 38.1767C35.924 38.1444 35.9482 38.1124 35.9718 38.0812C36.0355 37.997 36.095 37.9183 36.1499 37.8524C36.2183 37.7703 36.2655 37.7028 36.2951 37.6568C36.3098 37.6338 36.3202 37.6163 36.3266 37.605L36.3332 37.5929L36.3343 37.591L36.3343 37.591L36.3343 37.5909L36.3344 37.5908L36.3344 37.5907L36.3345 37.5905L36.3403 37.5789L36.3484 37.5681L36.3484 37.5681L36.3484 37.5681L36.3484 37.5681L36.3486 37.5679L36.3492 37.5671L36.3519 37.5634L36.3629 37.5485C36.3725 37.5354 36.3867 37.5159 36.4044 37.4911C36.4394 37.4421 36.4882 37.3724 36.5441 37.2887C36.5988 37.1936 36.6707 37.0874 36.7477 36.9735C36.7571 36.9597 36.7665 36.9458 36.776 36.9317C36.8665 36.7979 36.9657 36.6489 37.0647 36.4792C37.4589 35.8035 37.8028 34.749 38.0044 33.6269C38.0918 33.0443 38.1759 32.4792 38.1478 31.9167L38.1474 31.9092H38.1476C38.1476 31.3469 38.0352 30.8099 37.9189 30.2867C37.8066 29.7814 37.6096 29.3012 37.4104 28.9023C37.1861 28.5106 36.9351 28.2042 36.771 28.0396C36.4151 27.7117 36.0359 27.5227 35.6027 27.4408C35.2015 27.3881 34.8537 27.4681 34.5561 27.6034C34.2643 27.736 34.0511 27.9208 33.8609 28.1643C33.8473 28.1848 33.8341 28.2055 33.8214 28.2262C33.8439 28.2156 33.8667 28.206 33.8897 28.1974C34.1648 28.0943 34.4335 28.1314 34.6514 28.1936C34.8664 28.2551 35.1104 28.3836 35.2281 28.573C35.3189 28.6948 35.44 28.8772 35.532 29.0918C35.6254 29.3097 35.8038 29.8196 35.8631 30.65L35.8632 30.6503C35.9213 31.4929 35.9797 32.4554 35.9797 33.419C35.9797 34.2826 35.8403 35.0997 35.7283 35.7562C35.7144 35.8376 35.701 35.9165 35.6883 35.9927C35.6729 36.1732 35.6428 36.3374 35.6137 36.4797C35.6048 36.523 35.5962 36.5633 35.5881 36.6011C35.5686 36.6928 35.5523 36.7696 35.5426 36.8373L35.5412 36.8474L35.5384 36.8573C35.5096 36.958 35.488 37.037 35.4737 37.0906C35.4666 37.1175 35.4612 37.1379 35.4577 37.1516L35.4538 37.167L35.4528 37.1708L35.4526 37.1716L35.4526 37.1718L29.7968 35.8283ZM29.7968 35.8283L29.799 35.825C29.9895 35.5392 30.2058 35.3089 30.4385 35.0871L29.7968 35.8283Z" fill="white" stroke="white" stroke-width="0.3"/>
<mask id="path-9-inside-2" fill="white">
<path d="M40.6494 24.4187C41.5785 25.5801 41.927 26.7995 42.3334 28.048C42.7109 29.2965 43.0884 30.6031 43.6981 32.2581C43.7852 32.4614 43.8723 32.6936 44.0175 33.0711C44.1626 33.4485 44.3659 33.855 44.5691 34.3486C44.8014 34.8713 45.0337 35.3358 45.324 35.9165C45.324 35.9456 45.3531 35.9456 45.3531 35.9746H45.3821C45.4112 35.9746 45.4402 35.9746 45.4402 35.9746C45.4983 35.9746 45.5273 35.9746 45.5854 35.9456C45.6725 35.9456 45.7886 35.9165 45.9047 35.9165C45.9338 35.9165 45.9628 35.9165 46.0209 35.9165C46.0499 35.9165 46.0499 35.9165 46.079 35.9165C46.108 35.9165 46.108 35.9456 46.137 35.9456C46.1661 35.9456 46.2241 35.9165 46.2532 35.9165C46.3112 35.9165 46.3693 35.9165 46.4274 35.8875C46.4854 35.9165 46.6016 35.8004 46.6887 35.7423C46.7468 35.7133 46.7758 35.6842 46.8339 35.6262C46.8629 35.6262 46.8629 35.5971 46.8919 35.5681H46.95V35.5391V35.51V35.4229C46.921 34.7261 46.8919 34.0292 46.8919 33.3034C46.8919 33.013 46.8629 32.7517 46.8629 32.5194C46.8629 32.3743 46.8629 32.3452 46.8629 32.2871V32.1129C46.8629 31.6193 46.8629 31.1548 46.8629 30.6902C46.8919 29.7611 46.979 28.861 47.0661 28.1061C47.1533 27.3512 47.2984 26.7124 47.3855 26.2479C47.4726 25.8123 47.5307 25.551 47.5307 25.551C47.5307 25.551 47.5307 25.522 47.5597 25.4639C47.5597 25.4349 47.5597 25.4349 47.5888 25.4059C47.5888 25.3768 47.5888 25.4059 47.5888 25.4059C47.5888 25.4059 47.5888 25.4059 47.5888 25.3768C47.5888 25.3478 47.5888 25.3768 47.5888 25.3768V25.4059C47.5888 25.4349 47.5597 25.5801 47.5597 25.4639C47.5597 25.4349 47.5597 25.4349 47.5597 25.4059C47.6468 25.522 47.7049 25.6672 47.792 25.8123C47.9662 26.1027 48.1404 26.393 48.3437 26.7124C48.5469 27.0318 48.7502 27.3512 48.9534 27.6996C49.1567 28.019 49.3889 28.3384 49.5922 28.6868C49.7954 29.0352 50.0567 29.2965 50.289 29.4417C50.3471 29.4708 50.4052 29.4998 50.4632 29.5579C50.5213 29.5869 50.5794 29.6159 50.6084 29.6159C50.7246 29.645 50.8117 29.674 50.9278 29.703C51.0439 29.7321 51.1601 29.7321 51.3053 29.7321C51.4214 29.703 51.5666 29.703 51.7117 29.645C52.2344 29.4708 52.5247 29.1223 52.757 28.7158C52.786 28.6578 52.8151 28.5997 52.8441 28.5416C52.8731 28.4836 52.8731 28.3965 52.9022 28.3094C52.9312 28.1642 52.9602 28.019 52.9893 27.8448C53.0474 27.5544 53.1054 27.2641 53.1635 26.9737C53.1635 26.9157 53.1925 26.8286 53.1925 26.7415L53.2216 26.5963C53.2216 26.5382 53.2506 26.4511 53.2506 26.393C53.2796 26.2479 53.2796 26.1027 53.3087 25.9866C53.3667 25.4639 53.4248 24.9703 53.4829 24.5638C53.599 23.7218 53.6861 23.1121 53.7442 22.7056C54.0055 20.9925 54.1507 19.6279 54.3249 18.3213C54.4991 17.0147 54.6733 15.7662 55.1959 14.3726C53.9765 17.0438 52.5828 18.7278 51.5666 22.212C51.4504 22.6475 51.2762 23.2863 51.102 24.1283C51.0149 24.5638 50.9278 25.0574 50.8407 25.6091C50.8117 25.8414 50.7826 26.0737 50.7536 26.335V26.364L50.7826 26.335C50.8117 26.335 50.7536 26.2769 50.7246 26.2479L50.6375 26.1317L50.4632 25.8994C50.3471 25.7543 50.231 25.6091 50.1148 25.4639C49.8825 25.1736 49.6793 24.8832 49.4761 24.6509C49.3599 24.5058 49.2728 24.3896 49.1857 24.2735C49.0115 24.0412 48.8373 23.8089 48.6631 23.5766C47.9953 22.6185 47.5597 22.241 47.3275 21.9507C47.1823 21.8055 47.0661 21.6603 46.979 21.5442C46.921 21.4861 46.8629 21.4281 46.8339 21.37L46.8048 21.3119V21.341V21.399C46.8048 21.4861 46.7758 21.5442 46.7758 21.6313C46.6887 22.241 46.6887 22.6475 46.6597 23.054C46.6306 23.4605 46.6016 23.7799 46.6016 24.0702C46.5726 24.2735 46.5726 24.4767 46.5435 24.6219C46.4854 25.2316 46.4854 25.3768 46.4854 25.3768C46.4854 25.3768 46.4854 25.6381 46.4564 26.1027C46.4564 26.5673 46.4274 27.2351 46.3983 27.99C46.3693 28.7739 46.3112 29.645 46.2241 30.5741C46.1661 31.0386 46.108 31.5032 46.0499 31.9968L46.0209 32.171C46.0209 32.2291 45.9919 32.3162 45.9919 32.2871C46.0209 32.2871 45.9919 32.2871 45.9919 32.2871C45.9919 32.3162 46.0209 32.3743 46.0209 32.4033C46.0209 32.4323 46.0209 32.4033 46.0209 32.4033C46.0209 32.3743 46.0209 32.3743 45.9919 32.3452C45.9919 32.3162 45.9628 32.2581 45.9628 32.2581C45.9628 32.2581 45.9628 32.2581 45.9628 32.2291C45.9628 32.142 45.9628 32.0839 45.9628 31.9968C45.9628 32.0839 45.9628 32.171 45.9628 32.2291V32.2871C45.9628 32.2581 45.9628 32.2291 45.9628 32.2291C45.8176 31.8516 45.7015 31.5903 45.6144 31.3871C44.8885 29.7611 44.1336 28.5416 43.3497 27.4383C42.5077 26.4511 41.6366 25.493 40.6494 24.4187Z"/>
</mask>
<path d="M40.6494 24.4187C41.5785 25.5801 41.927 26.7995 42.3334 28.048C42.7109 29.2965 43.0884 30.6031 43.6981 32.2581C43.7852 32.4614 43.8723 32.6936 44.0175 33.0711C44.1626 33.4485 44.3659 33.855 44.5691 34.3486C44.8014 34.8713 45.0337 35.3358 45.324 35.9165C45.324 35.9456 45.3531 35.9456 45.3531 35.9746H45.3821C45.4112 35.9746 45.4402 35.9746 45.4402 35.9746C45.4983 35.9746 45.5273 35.9746 45.5854 35.9456C45.6725 35.9456 45.7886 35.9165 45.9047 35.9165C45.9338 35.9165 45.9628 35.9165 46.0209 35.9165C46.0499 35.9165 46.0499 35.9165 46.079 35.9165C46.108 35.9165 46.108 35.9456 46.137 35.9456C46.1661 35.9456 46.2241 35.9165 46.2532 35.9165C46.3112 35.9165 46.3693 35.9165 46.4274 35.8875C46.4854 35.9165 46.6016 35.8004 46.6887 35.7423C46.7468 35.7133 46.7758 35.6842 46.8339 35.6262C46.8629 35.6262 46.8629 35.5971 46.8919 35.5681H46.95V35.5391V35.51V35.4229C46.921 34.7261 46.8919 34.0292 46.8919 33.3034C46.8919 33.013 46.8629 32.7517 46.8629 32.5194C46.8629 32.3743 46.8629 32.3452 46.8629 32.2871V32.1129C46.8629 31.6193 46.8629 31.1548 46.8629 30.6902C46.8919 29.7611 46.979 28.861 47.0661 28.1061C47.1533 27.3512 47.2984 26.7124 47.3855 26.2479C47.4726 25.8123 47.5307 25.551 47.5307 25.551C47.5307 25.551 47.5307 25.522 47.5597 25.4639C47.5597 25.4349 47.5597 25.4349 47.5888 25.4059C47.5888 25.3768 47.5888 25.4059 47.5888 25.4059C47.5888 25.4059 47.5888 25.4059 47.5888 25.3768C47.5888 25.3478 47.5888 25.3768 47.5888 25.3768V25.4059C47.5888 25.4349 47.5597 25.5801 47.5597 25.4639C47.5597 25.4349 47.5597 25.4349 47.5597 25.4059C47.6468 25.522 47.7049 25.6672 47.792 25.8123C47.9662 26.1027 48.1404 26.393 48.3437 26.7124C48.5469 27.0318 48.7502 27.3512 48.9534 27.6996C49.1567 28.019 49.3889 28.3384 49.5922 28.6868C49.7954 29.0352 50.0567 29.2965 50.289 29.4417C50.3471 29.4708 50.4052 29.4998 50.4632 29.5579C50.5213 29.5869 50.5794 29.6159 50.6084 29.6159C50.7246 29.645 50.8117 29.674 50.9278 29.703C51.0439 29.7321 51.1601 29.7321 51.3053 29.7321C51.4214 29.703 51.5666 29.703 51.7117 29.645C52.2344 29.4708 52.5247 29.1223 52.757 28.7158C52.786 28.6578 52.8151 28.5997 52.8441 28.5416C52.8731 28.4836 52.8731 28.3965 52.9022 28.3094C52.9312 28.1642 52.9602 28.019 52.9893 27.8448C53.0474 27.5544 53.1054 27.2641 53.1635 26.9737C53.1635 26.9157 53.1925 26.8286 53.1925 26.7415L53.2216 26.5963C53.2216 26.5382 53.2506 26.4511 53.2506 26.393C53.2796 26.2479 53.2796 26.1027 53.3087 25.9866C53.3667 25.4639 53.4248 24.9703 53.4829 24.5638C53.599 23.7218 53.6861 23.1121 53.7442 22.7056C54.0055 20.9925 54.1507 19.6279 54.3249 18.3213C54.4991 17.0147 54.6733 15.7662 55.1959 14.3726C53.9765 17.0438 52.5828 18.7278 51.5666 22.212C51.4504 22.6475 51.2762 23.2863 51.102 24.1283C51.0149 24.5638 50.9278 25.0574 50.8407 25.6091C50.8117 25.8414 50.7826 26.0737 50.7536 26.335V26.364L50.7826 26.335C50.8117 26.335 50.7536 26.2769 50.7246 26.2479L50.6375 26.1317L50.4632 25.8994C50.3471 25.7543 50.231 25.6091 50.1148 25.4639C49.8825 25.1736 49.6793 24.8832 49.4761 24.6509C49.3599 24.5058 49.2728 24.3896 49.1857 24.2735C49.0115 24.0412 48.8373 23.8089 48.6631 23.5766C47.9953 22.6185 47.5597 22.241 47.3275 21.9507C47.1823 21.8055 47.0661 21.6603 46.979 21.5442C46.921 21.4861 46.8629 21.4281 46.8339 21.37L46.8048 21.3119V21.341V21.399C46.8048 21.4861 46.7758 21.5442 46.7758 21.6313C46.6887 22.241 46.6887 22.6475 46.6597 23.054C46.6306 23.4605 46.6016 23.7799 46.6016 24.0702C46.5726 24.2735 46.5726 24.4767 46.5435 24.6219C46.4854 25.2316 46.4854 25.3768 46.4854 25.3768C46.4854 25.3768 46.4854 25.6381 46.4564 26.1027C46.4564 26.5673 46.4274 27.2351 46.3983 27.99C46.3693 28.7739 46.3112 29.645 46.2241 30.5741C46.1661 31.0386 46.108 31.5032 46.0499 31.9968L46.0209 32.171C46.0209 32.2291 45.9919 32.3162 45.9919 32.2871C46.0209 32.2871 45.9919 32.2871 45.9919 32.2871C45.9919 32.3162 46.0209 32.3743 46.0209 32.4033C46.0209 32.4323 46.0209 32.4033 46.0209 32.4033C46.0209 32.3743 46.0209 32.3743 45.9919 32.3452C45.9919 32.3162 45.9628 32.2581 45.9628 32.2581C45.9628 32.2581 45.9628 32.2581 45.9628 32.2291C45.9628 32.142 45.9628 32.0839 45.9628 31.9968C45.9628 32.0839 45.9628 32.171 45.9628 32.2291V32.2871C45.9628 32.2581 45.9628 32.2291 45.9628 32.2291C45.8176 31.8516 45.7015 31.5903 45.6144 31.3871C44.8885 29.7611 44.1336 28.5416 43.3497 27.4383C42.5077 26.4511 41.6366 25.493 40.6494 24.4187Z" fill="white" stroke="white" stroke-width="0.6" mask="url(#path-9-inside-2)"/>
<path d="M57.1345 11.3837L57.1327 11.3834L57.1267 11.3821C57.1045 11.377 57.0632 11.3661 57.0026 11.3496C56.9679 11.3401 56.9276 11.329 56.8825 11.3166C56.7738 11.2866 56.637 11.2489 56.4828 11.2078L56.4828 11.2078L56.4805 11.2072C56.0148 11.0908 55.4014 10.9447 54.7579 10.8277C54.1152 10.7109 53.4734 10.6234 53.0076 10.5651L53.0065 10.565C52.7617 10.5362 52.5603 10.5074 52.4202 10.4859C52.3502 10.4751 52.2956 10.4661 52.2586 10.4599L52.2166 10.4527L52.2061 10.4508L52.2038 10.4504L52.2035 10.4504L50.2897 10.0734L50.2887 10.0732L47.5927 9.5224C47.5357 9.50818 47.4779 9.49404 47.4194 9.47972C46.9945 9.37576 46.532 9.26262 46.0906 9.04241C45.8374 8.90156 45.59 8.73563 45.3717 8.51739C45.1547 8.30035 44.99 8.05501 44.851 7.77803C44.741 7.5013 44.6631 7.17954 44.6893 6.86478C44.7162 6.54197 44.8232 6.2511 45.0066 6.01529L45.0067 6.01535L45.0098 6.01103C45.3593 5.5272 45.8428 5.30823 46.3079 5.10468C46.7868 4.9362 47.239 4.85111 47.7307 4.76435C48.2135 4.67914 48.669 4.65049 49.1564 4.65049C49.6519 4.65049 50.1359 4.6507 50.5895 4.7074L50.5895 4.7074L50.5906 4.70753C51.086 4.76581 51.5671 4.82275 52.0466 4.96378L52.0465 4.964L52.0545 4.96589C53.019 5.19282 53.9276 5.64696 54.6944 6.27177C55.4675 6.9017 56.126 7.61744 56.6699 8.3904L56.6699 8.39041L56.6716 8.39278C56.9865 8.82222 57.273 9.28057 57.5311 9.76793L57.5307 9.76811L57.5364 9.77725C57.8207 10.2321 58.0493 10.7173 58.2508 11.2066L58.2504 11.2068L58.2553 11.2166C58.2621 11.2301 58.2659 11.2377 58.2684 11.2432C58.2685 11.2477 58.2685 11.2543 58.2685 11.2656V11.2805L58.2714 11.2951C58.2827 11.3512 58.2979 11.4151 58.3155 11.4835C58.1917 11.3786 58.0435 11.2741 57.88 11.1674C57.8435 11.1318 57.807 11.0952 57.7697 11.058L57.7678 11.0561C57.676 10.9642 57.5796 10.8679 57.4753 10.7781L56.9277 10.2305L56.9264 10.2292C56.5501 9.85289 56.2002 9.50301 55.821 9.15291C55.1502 8.51129 54.4791 7.92781 53.7789 7.37349L53.779 7.37344L53.7758 7.37109L53.2532 6.97912L52.7306 6.58715C52.3766 6.3217 51.9943 6.08641 51.6189 5.85537L51.6159 5.85352C50.847 5.38038 49.9523 5.02063 49.0209 4.96053L49.0206 4.96052C48.5435 4.9307 48.0913 4.96026 47.6369 5.08143L47.6369 5.0814L47.6344 5.08213C47.6001 5.09193 47.5642 5.10191 47.5273 5.11219C47.3533 5.16062 47.1548 5.21586 46.9777 5.29174L46.9713 5.29451C46.7725 5.37968 46.5586 5.47134 46.3729 5.59515C46.1874 5.71882 46.0223 5.86738 45.8984 6.0273C45.7755 6.18591 45.6863 6.36449 45.6681 6.54705C45.633 6.89832 45.7807 7.14195 45.9948 7.38662L46.0014 7.39415L46.0089 7.40073C46.255 7.61606 46.508 7.77482 46.8843 7.86889C47.2432 7.95862 47.6584 8.01766 48.1287 8.04716C49.083 8.13396 50.0351 8.24948 50.957 8.4223L51.243 8.47949L51.4718 8.5367L51.9348 8.65245C52.0359 8.67999 52.1316 8.70413 52.2247 8.72761C52.4363 8.781 52.6344 8.83096 52.8506 8.9096L52.8511 8.90978L52.8569 8.91199L52.8803 8.92085L52.9712 8.95573C53.0506 8.98639 53.1662 9.03154 53.3107 9.08937C53.5996 9.2049 54.0039 9.37095 54.4659 9.57307C55.3887 10.0057 56.4845 10.6115 57.3481 11.1872L57.3481 11.1873L57.3527 11.1901C57.4743 11.2649 57.5878 11.3356 57.6922 11.4032C57.7435 11.4529 57.7966 11.5023 57.8519 11.5499C57.8665 11.5645 57.8907 11.5884 57.916 11.6095C57.9243 11.6165 57.9341 11.6243 57.945 11.6319C57.7041 11.54 57.4319 11.4601 57.1521 11.3824L57.0958 11.5289C57.0717 11.5235 57.0299 11.5125 56.9733 11.4971C56.9772 11.4808 56.9841 11.4641 56.9953 11.4476C57.0242 11.4053 57.0642 11.3922 57.076 11.3886C57.0917 11.384 57.1045 11.3831 57.1099 11.3828C57.1214 11.3822 57.1298 11.3832 57.1311 11.3833L57.1342 11.3837L57.1345 11.3837ZM57.1345 11.3837L57.1349 11.3838L57.1351 11.3839C57.1351 11.3839 57.1349 11.3838 57.1345 11.3837Z" fill="white" stroke="white" stroke-width="0.3"/>
<path d="M59.1708 10.1572L59.1726 10.1491C59.178 10.1268 59.1897 10.0847 59.2079 10.0228C59.2438 9.90076 59.3016 9.71308 59.3741 9.48084C59.5165 9.02517 59.7744 8.39407 60.0355 7.78485C60.3245 7.17791 60.6138 6.57039 60.817 6.1351C60.9326 5.91815 61.0267 5.73729 61.0919 5.61039C61.1248 5.54659 61.1503 5.49641 61.1677 5.46214L61.1875 5.42292L61.1924 5.41308C61.2477 5.3166 61.3101 5.21944 61.3751 5.11842L61.3762 5.11672C61.4408 5.01624 61.5079 4.91188 61.5679 4.80686L61.7421 4.50199L61.9163 4.19712L61.9168 4.19624C62.1779 3.73199 62.3913 3.30893 62.4839 2.87905C62.5767 2.50519 62.5484 2.06651 62.4178 1.77055C62.3427 1.5848 62.196 1.44522 61.9983 1.34635C61.8081 1.25126 61.5779 1.18341 61.3122 1.21441C61.0584 1.21593 60.8037 1.28011 60.5793 1.40835C60.3597 1.53383 60.1428 1.7199 59.9868 1.90712L59.9867 1.90708L59.9841 1.91047C59.6444 2.34278 59.4631 2.86259 59.3734 3.4012C59.2842 3.9361 59.2842 4.527 59.2842 5.04546V5.05182C59.2842 5.59777 59.2555 6.11552 59.2265 6.63779L59.0817 8.23044L58.9077 9.76765L58.9077 9.76796L58.8628 10.1715C58.7123 10.7656 58.644 11.2972 58.613 11.6857C58.6097 11.6969 58.6063 11.7081 58.6029 11.7191C58.5675 11.6564 58.5241 11.5825 58.4709 11.4967C58.4642 11.4768 58.4559 11.4621 58.4519 11.4551C58.4417 11.4369 58.4292 11.4192 58.4203 11.4068C58.4179 11.4035 58.4157 11.4003 58.4135 11.3973C58.3989 11.3769 58.389 11.3631 58.3821 11.3511L58.1272 10.5864C58.1076 10.4992 58.0846 10.4102 58.0622 10.3241C58.0511 10.2812 58.0402 10.239 58.03 10.1982C57.9978 10.0693 57.9707 9.94649 57.9573 9.82603L57.9564 9.81797L57.9547 9.81005C57.841 9.29846 57.7836 8.75581 57.7548 8.20894C57.726 7.63311 57.7262 7.06038 57.7833 6.48946C57.8398 5.92432 57.9813 5.38526 58.1813 4.84236C58.3823 4.29675 58.6122 3.77924 58.8715 3.26066C58.893 3.21774 58.9144 3.17477 58.9358 3.13182C59.1776 2.64616 59.4188 2.16171 59.7539 1.74932L59.754 1.74939L59.7575 1.74473C59.9217 1.52573 60.1426 1.30404 60.3931 1.10868C60.6507 0.937124 60.9228 0.776021 61.2158 0.696112C61.5252 0.611732 61.8505 0.558974 62.1988 0.612549C62.5481 0.666291 62.8983 0.828092 63.1664 1.06926C63.7316 1.58077 63.9283 2.3423 63.901 3.03943C63.8462 3.71846 63.6342 4.2934 63.4355 4.83213C63.4294 4.84874 63.4233 4.86532 63.4172 4.88186C63.3039 5.16478 63.1619 5.44885 63.0165 5.73965L63.0161 5.73942L63.0114 5.75102C62.9751 5.84191 62.9289 5.91457 62.8713 6.00505C62.8463 6.04437 62.8192 6.08704 62.7898 6.13604C62.7449 6.21078 62.7076 6.27795 62.6715 6.3429L62.6711 6.34362C62.6362 6.40656 62.6023 6.46746 62.5624 6.53439L62.5464 6.55502C62.5322 6.5735 62.5116 6.60064 62.4855 6.63598C62.4345 6.70521 62.3625 6.80598 62.2764 6.93486C62.1742 7.05218 62.0586 7.19668 61.932 7.35492L61.9302 7.35713C61.7995 7.5206 61.6555 7.70053 61.4973 7.88746C61.1783 8.26454 60.8317 8.66887 60.4567 9.07272L60.4566 9.07264L60.4527 9.07717C60.1002 9.4884 59.7489 9.95694 59.4573 10.3651L59.4572 10.365L59.453 10.3715C59.2831 10.637 59.1471 10.8766 59.0384 11.0901C59.0584 10.9311 59.0824 10.7697 59.1167 10.5979L59.1173 10.598L59.1187 10.585L59.1587 10.2254C59.1633 10.2073 59.168 10.1893 59.1728 10.1711L59.1651 10.1682L59.1707 10.1178C59.1717 10.125 59.172 10.1305 59.1721 10.1336C59.1725 10.1445 59.1714 10.1536 59.1708 10.1572ZM59.1708 10.1572L59.1707 10.1577L59.1708 10.1572Z" fill="white" stroke="white" stroke-width="0.3"/>
<path d="M60.8792 30.4577C60.87 30.4942 60.8627 30.531 60.8581 30.5646L60.8388 30.584L60.7948 30.6279V30.6901C60.7948 30.6711 60.8 30.6469 60.8155 30.6236C60.8249 30.6095 60.8359 30.5991 60.8463 30.5916C60.8495 30.5893 60.8526 30.5872 60.8556 30.5855C60.8551 30.59 60.8547 30.5945 60.8544 30.5989C60.8542 30.599 60.8541 30.5991 60.854 30.5992C60.8488 30.6035 60.8437 30.6081 60.8388 30.613L60.8529 30.6272C60.8529 30.6288 60.8529 30.6304 60.8529 30.632V30.6322V30.6323V30.6325V30.6327V30.6328V30.633V30.6332V30.6334V30.6335V30.6337V30.6339V30.634V30.6342V30.6344V30.6345V30.6347V30.6349V30.6351V30.6352V30.6354V30.6356V30.6357V30.6359V30.6361V30.6362V30.6364V30.6366V30.6368V30.6369V30.6371V30.6373V30.6374V30.6376V30.6378V30.6379V30.6381V30.6383V30.6384V30.6386V30.6388V30.639V30.6391V30.6393V30.6395V30.6396V30.6398V30.64V30.6401V30.6403V30.6405V30.6406V30.6408V30.641V30.6411V30.6413V30.6415V30.6416V30.6418V30.642V30.6422V30.6423V30.6425V30.6427V30.6428V30.643V30.6432V30.6433V30.6435V30.6437V30.6438V30.644V30.6442V30.6443V30.6445V30.6447V30.6448V30.645V30.6452V30.6453V30.6455V30.6457V30.6458V30.646V30.6462V30.6463V30.6465V30.6467V30.6468V30.647V30.6471V30.6473V30.6475V30.6476V30.6478V30.648V30.6481V30.6483V30.6485V30.6486V30.6488V30.649V30.6491V30.6493V30.6494V30.6496V30.6498V30.6499V30.6501V30.6503V30.6504V30.6506V30.6507V30.6509V30.6511V30.6512V30.6514V30.6516V30.6517V30.6519V30.652V30.6522V30.6524V30.6525V30.6527V30.6528V30.653V30.6532V30.6533V30.6535V30.6536V30.6538V30.6539V30.6541V30.6543V30.6544V30.6546V30.6547V30.6549V30.6551V30.6552V30.6554V30.6555V30.6557V30.6558V30.656V30.6562V30.6563V30.6565V30.6566V30.6568V30.6569V30.6571V30.6572V30.6574V30.6576V30.6577V30.6579V30.658V30.6582V30.6583V30.6585V30.6586V30.6588V30.6589V30.6591V30.6592V30.6594V30.6595V30.6597V30.6598V30.66V30.6602V30.6603V30.6605V30.6606V30.6608V30.6609V30.6611V30.6612V30.6614V30.6615V30.6616V30.6618V30.6619V30.6621V30.6622V30.6624V30.6625V30.6627V30.6628V30.663V30.6631V30.6633V30.6634V30.6636V30.6637V30.6639V30.664V30.6641V30.6643V30.6644V30.6646V30.6647V30.6649V30.665V30.6651V30.6653V30.6654V30.6656V30.6657V30.6659V30.666V30.6661V30.6663V30.6664V30.6666V30.6667V30.6668V30.667V30.6671V30.6673V30.6674V30.6675V30.6677V30.6678V30.6679V30.6681V30.6682V30.6684V30.6685V30.6686V30.6688V30.6689V30.669V30.6692V30.6693V30.6694V30.6696V30.6697V30.6698V30.67V30.6701V30.6702V30.6704V30.6705V30.6706V30.6708V30.6709V30.671V30.6711V30.6713V30.6714V30.6715V30.6717V30.6718V30.6719V30.672V30.6722V30.6723V30.6724V30.6725V30.6727V30.6728V30.6729V30.673V30.6732V30.6733V30.6734V30.6735V30.6737V30.6738V30.6739V30.674V30.6742V30.6743V30.6744V30.6745V30.6746V30.6748V30.6749V30.675V30.6751V30.6752V30.6754V30.6755V30.6756V30.6757V30.6758V30.6759V30.6761V30.6762V30.6763V30.6764V30.6765V30.6766V30.6767V30.6769V30.677V30.6771V30.6772V30.6773V30.6774V30.6775V30.6776V30.6777V30.6779V30.678V30.6781V30.6782V30.6783V30.6784V30.6785V30.6786V30.6787V30.6788V30.6789V30.679V30.6791V30.6792V30.6793V30.6794V30.6795V30.6797V30.6798V30.6799V30.68V30.6801V30.6802V30.6803V30.6804V30.6805V30.6806V30.6807V30.6808V30.6808V30.6809V30.681V30.6811V30.6812V30.6813V30.6814V30.6815V30.6816V30.6817V30.6818V30.6819V30.682V30.6821V30.6822V30.6823V30.6824V30.6824V30.6825V30.6826V30.6827V30.6828V30.6829V30.683V30.6831V30.6831V30.6832V30.6833V30.6834V30.6835V30.6836V30.6837V30.6837V30.6838V30.6839V30.684V30.6841V30.6841V30.6842V30.6843V30.6844V30.6845V30.6845V30.6846V30.6847V30.6848V30.6848V30.6849V30.685V30.6851V30.6851V30.6852V30.6853V30.6854V30.6854V30.6855V30.6856V30.6856V30.6857V30.6858V30.6859V30.6859V30.686V30.6861V30.6861V30.6862V30.6863V30.6863V30.6864V30.6865V30.6865V30.6866V30.6866V30.6867V30.6868V30.6868V30.6869V30.687V30.687V30.6871V30.6871V30.6872V30.6872V30.6873V30.6874V30.6874V30.6875V30.6875V30.6876V30.6876V30.6877V30.6877V30.6878V30.6878V30.6879V30.6879V30.688V30.688V30.6881V30.6881V30.6882V30.6882V30.6883V30.6883V30.6884V30.6884V30.6885V30.6885V30.6885V30.6886V30.6886V30.6887V30.6887V30.6888V30.6888V30.6888V30.6889V30.6889V30.6889V30.689V30.689V30.6891V30.6891V30.6891V30.6892V30.6892V30.6892V30.6893V30.6893V30.6893V30.6893V30.6894V30.6894V30.6894V30.6895V30.6895V30.6895V30.6895V30.6896V30.6896V30.6896V30.6896V30.6897V30.6897V30.6897V30.6897V30.6897V30.6898V30.6898V30.6898V30.6898V30.6898V30.6899V30.6899V30.6899V30.6899V30.6899V30.69V30.69V30.69V30.69V30.69V30.69V30.6901V30.8401H60.9158V30.8691H60.9159H60.9161H60.9164H60.9448H61.007L61.0381 30.8379C61.0393 30.8377 61.0428 30.837 61.0465 30.836C61.0476 30.8358 61.0559 30.8338 61.0658 30.8299C61.068 30.829 61.0771 30.8255 61.0885 30.8186C61.1859 30.8507 61.3451 30.9012 61.5472 30.9517C61.7659 31.0064 62.0457 31.1179 62.2714 31.2307L62.2714 31.2308L62.2746 31.2323C62.747 31.4546 63.166 31.7892 63.5022 32.1814L63.5021 32.1814L63.506 32.1857C64.209 32.9449 64.6554 33.9534 64.6275 35.0415H64.6274V35.0453C64.6274 36.1053 64.1813 37.1147 63.5068 37.8749L63.3648 38.017L63.3476 38.0342L63.337 38.0554C63.337 38.0554 63.3349 38.0587 63.329 38.0653C63.3223 38.0727 63.3137 38.0809 63.3043 38.089C63.295 38.0969 63.2862 38.1037 63.2798 38.1084L63.2727 38.1135L63.2715 38.1143L63.2714 38.1142L63.2647 38.1192L63.1486 38.2063L63.1401 38.2127L63.1325 38.2202C63.0873 38.2655 63.0145 38.3147 62.9231 38.3757L62.9228 38.3752L62.9126 38.3833C62.7743 38.494 62.6089 38.6041 62.4456 38.6857L62.1843 38.8164L61.927 38.945C61.8357 38.9838 61.7498 39.0104 61.6629 39.0347C61.641 39.0409 61.6185 39.047 61.5955 39.0532C61.5334 39.0701 61.4683 39.0879 61.4044 39.1087L61.382 39.1117C61.3585 39.1148 61.3237 39.1192 61.279 39.1246C61.1895 39.1353 61.0603 39.1497 60.9022 39.1641L60.9009 39.1642C60.614 39.1929 60.1813 39.2218 59.6875 39.2508L59.687 39.2509C59.2154 39.2803 58.6711 39.369 58.2688 39.5547L58.2688 39.5546L58.2646 39.5567C58.0461 39.666 57.8821 39.9068 57.7659 40.1101C57.64 40.3304 57.5489 40.6067 57.4893 40.845L57.4892 40.8449L57.4882 40.8499C57.444 41.0559 57.4144 41.2476 57.3953 41.4242C57.3751 41.2233 57.3664 41.0087 57.3776 40.7845C57.3779 40.7813 57.378 40.7785 57.3781 40.7767C57.3783 40.7723 57.3784 40.7683 57.3784 40.7652L57.2266 40.7612C57.2252 40.741 57.224 40.693 57.227 40.6219C57.3054 40.6209 57.3459 40.679 57.3507 40.6859L57.3508 40.6861C57.3621 40.7023 57.3674 40.7169 57.3689 40.7211C57.3727 40.7318 57.3744 40.7404 57.3748 40.7424L57.3748 40.7425L57.3759 40.7493C57.3761 40.7506 57.3762 40.7513 57.3762 40.7513C57.3762 40.7513 57.3759 40.7469 57.3756 40.7365C57.3748 40.7117 57.3747 40.6661 57.3781 40.6027C57.385 40.4762 57.4057 40.2818 57.4615 40.0446L57.4615 40.0446L57.4619 40.0428C57.5161 39.7988 57.6224 39.509 57.8861 39.2453C58.159 38.9724 58.4897 38.7783 58.7991 38.6375C59.1264 38.4953 59.4548 38.381 59.7583 38.2798C59.8193 38.2595 59.8795 38.2396 59.9387 38.2201C60.1689 38.1441 60.3827 38.0736 60.5596 38.0031C60.7932 37.93 60.9695 37.8639 61.0884 37.8156C61.1483 37.7912 61.1937 37.7714 61.2245 37.7574C61.2399 37.7504 61.2517 37.7449 61.2598 37.7411L61.2692 37.7365L61.2719 37.7352L61.2727 37.7348L61.273 37.7346L61.2731 37.7346L61.2732 37.7346L61.2061 37.6004L61.2732 37.7346C61.4503 37.646 61.6624 37.5255 61.8479 37.3721C61.945 37.306 62.0385 37.2125 62.1193 37.1317L62.1252 37.1258L62.1833 37.0677L62.2123 37.0387L62.2123 37.0386L62.1062 36.9326L62.2124 37.0386L62.2124 37.0385L62.2125 37.0384L62.2127 37.0382L62.2132 37.0377L62.2144 37.0366L62.2171 37.0336L62.2247 37.0252C62.2303 37.0186 62.2378 37.0093 62.2456 36.9976C62.2533 36.9859 62.2673 36.9634 62.2764 36.9332L62.3159 36.874C62.3611 36.8135 62.4057 36.7466 62.4476 36.6837L62.4488 36.6819C62.4929 36.6158 62.5341 36.5541 62.5746 36.5L62.5818 36.4904L62.5874 36.4798C62.893 35.8992 62.9865 35.254 62.8627 34.666C62.7398 34.0821 62.4038 33.5035 61.9473 33.0774L61.9473 33.0774L61.9437 33.0742C61.6992 32.8603 61.4525 32.7059 61.1457 32.5832L61.09 32.7225L61.1457 32.5832C61.0484 32.5443 60.9234 32.5045 60.7792 32.4585C60.7006 32.4334 60.6163 32.4065 60.5277 32.377C60.2883 32.2972 59.9916 32.1362 59.7202 31.8377C59.4586 31.5499 59.3237 31.123 59.3237 30.7772C59.3237 30.4263 59.4038 30.1267 59.4879 29.8733C59.601 29.62 59.7383 29.3758 59.8696 29.2182L59.8699 29.2185L59.8765 29.2094C59.9473 29.1102 60.0183 29.0179 60.0911 28.9233L60.0918 28.9223C60.1625 28.8304 60.2349 28.7363 60.3075 28.635C60.9278 27.9321 61.6911 27.4501 62.4387 27.0476C62.8125 26.8463 63.1869 26.6662 63.5607 26.4884C63.5966 26.4714 63.6324 26.4543 63.6682 26.4373C64.0052 26.2772 64.3418 26.1172 64.6724 25.9453C65.4114 25.561 66.064 25.0868 66.6283 24.4928C67.1931 23.8982 67.6384 23.1859 67.9354 22.4441C68.2623 21.7002 68.44 20.8694 68.4696 20.0688C68.4993 19.2668 68.3805 18.4672 68.1738 17.729C67.9664 16.9884 67.641 16.2787 67.2568 15.6581C66.8701 15.0333 66.3662 14.4709 65.8066 13.9703C65.2428 13.4658 64.5916 13.0518 63.913 12.7273C63.2337 12.4024 62.4672 12.1663 61.7004 12.0476L61.6995 12.0474C61.5901 12.02 61.461 11.9877 61.3283 11.9867L60.9563 11.9581L60.9564 11.9577H60.9448C60.8991 11.9577 60.8524 11.9522 60.7912 11.945L60.7845 11.9442C60.7226 11.9369 60.6496 11.9286 60.5674 11.9286H60.1899L60.1818 11.9286C60.0743 11.9286 59.9206 11.9286 59.7891 11.959L59.429 11.9867C59.3077 11.9876 59.1678 12.0142 59.056 12.0408C58.9282 12.0154 58.7812 12.0172 58.6562 12.0462C58.6354 12.0488 58.6187 12.0541 58.6079 12.0579C58.6004 12.0605 58.5935 12.0633 58.5889 12.0652L58.5772 12.07C58.5677 12.0738 58.5659 12.0738 58.5642 12.0738C58.5641 12.0738 58.564 12.0738 58.564 12.0738H58.5533L58.5427 12.0753C58.5085 12.0802 58.4727 12.0859 58.4364 12.092C58.4566 12.0736 58.4776 12.0544 58.4996 12.0341C58.5004 12.0336 58.5013 12.0332 58.502 12.0328C58.5183 12.024 58.5313 12.0141 58.5401 12.0069C58.556 11.9939 58.5716 11.9782 58.5812 11.9687C58.5818 11.9681 58.5824 11.9675 58.5829 11.9669C58.5881 11.9618 58.592 11.9579 58.595 11.955L58.602 11.9515L58.603 11.951C58.7177 11.8936 58.8367 11.8341 58.9845 11.7457C59.0377 11.7193 59.098 11.6925 59.162 11.664L59.1638 11.6632C59.225 11.6361 59.2897 11.6073 59.3487 11.5781L59.7468 11.436L59.7468 11.4361L59.752 11.434C59.8857 11.3805 59.9921 11.3537 60.1322 11.3256L60.1322 11.3257L60.1342 11.3252L60.5397 11.2383C60.6895 11.2084 60.818 11.1834 60.9158 11.1834H60.9257L60.9356 11.1821L61.3711 11.124L61.3712 11.1243L61.3807 11.1224C61.4351 11.1115 61.493 11.1108 61.5616 11.1142C61.5807 11.1152 61.602 11.1166 61.6247 11.1181C61.6758 11.1215 61.7335 11.1253 61.7868 11.1253C62.6712 11.1253 63.5827 11.268 64.4355 11.5807C65.2906 11.8942 66.0883 12.3501 66.8005 12.9484C67.513 13.5469 68.1089 14.257 68.534 15.1073L68.534 15.1073L68.5349 15.1091C68.9586 15.9283 69.1582 16.8361 69.2153 17.7211C69.2721 18.6018 69.1588 19.4866 68.9861 20.3509C68.7854 21.2101 68.499 22.012 68.1265 22.7855C67.7544 23.5584 67.2965 24.2739 66.7237 24.9612C66.5117 25.2156 66.2858 25.4364 66.0496 25.6672C65.9696 25.7454 65.8885 25.8247 65.8063 25.9068C65.4937 26.1907 65.152 26.4471 64.8036 26.7084L64.8024 26.7093C64.4905 26.9482 64.174 27.178 63.8606 27.4055C63.833 27.4256 63.8054 27.4456 63.7779 27.4656C63.4382 27.7123 63.1031 27.957 62.7866 28.2058C62.1548 28.7025 61.5876 29.2228 61.1965 29.8244L61.1964 29.8243L61.1937 29.8289L61.1913 29.8328C61.106 29.975 61.0165 30.1242 60.9558 30.2455C60.9207 30.3159 60.8955 30.3921 60.8792 30.4577ZM60.8685 30.6428L60.9158 30.6901C60.9158 30.6991 60.9158 30.7087 60.9158 30.7191V30.8063C60.9025 30.7954 60.8856 30.7777 60.8738 30.7512C60.8646 30.7306 60.8607 30.7098 60.8608 30.6901C60.8609 30.6734 60.8637 30.6574 60.8685 30.6428ZM61.0286 30.8403C61.0286 30.8402 61.0293 30.8399 61.0308 30.8395C61.0294 30.8402 61.0285 30.8404 61.0286 30.8403Z" fill="white" stroke="white" stroke-width="0.3"/>
<path d="M58.0652 56.4151C58.0652 56.4927 58.0917 56.5691 58.149 56.6264C58.2064 56.6837 58.2827 56.7103 58.3603 56.7103C58.4571 56.7103 58.5319 56.6615 58.5785 56.6082C58.6226 56.5578 58.6555 56.4876 58.6555 56.4151V12.2819C58.6555 12.2043 58.629 12.1279 58.5717 12.0706C58.5143 12.0133 58.438 11.9867 58.3603 11.9867H36.526C36.4484 11.9867 36.372 12.0133 36.3147 12.0706C36.2574 12.1279 36.2309 12.2043 36.2309 12.2819C36.2309 12.3595 36.2574 12.4359 36.3147 12.4932C36.372 12.5505 36.4484 12.5771 36.526 12.5771H58.0652V56.4151Z" fill="white" stroke="white" stroke-width="0.3"/>
<path d="M15.7659 36.9082H15.9159V36.7582V12.6059H24.1861H24.3361V12.4559V12.1655V12.0155H24.1861H15.4756H15.3256V12.1655V36.7582V36.9082H15.4756H15.7659Z" fill="white" stroke="white" stroke-width="0.3"/>
</svg>
