<svg width="70" height="58" viewBox="0 0 70 58" fill="none" xmlns="http://www.w3.org/2000/svg">
<path d="M57.1339 25.9801L57.1198 25.9754C57.1028 25.9697 57.0921 25.9662 57.084 25.9637C57.0798 25.9624 57.0773 25.9617 57.0759 25.9613C57.0739 25.9613 57.0692 25.9612 57.06 25.9612L56.4471 25.983L56.4418 25.9832V25.9831H56.4406H56.4395H56.4383H56.4372H56.436H56.4348H56.4337H56.4325H56.4314H56.4302H56.429H56.4279H56.4267H56.4256H56.4244H56.4232H56.4221H56.4209H56.4198H56.4186H56.4174H56.4163H56.4151H56.414H56.4128H56.4117H56.4105H56.4093H56.4082H56.407H56.4059H56.4047H56.4035H56.4024H56.4012H56.4001H56.3989H56.3977H56.3966H56.3954H56.3943H56.3931H56.392H56.3908H56.3896H56.3885H56.3873H56.3862H56.385H56.3838H56.3827H56.3815H56.3804H56.3792H56.3781H56.3769H56.3757H56.3746H56.3734H56.3723H56.3711H56.37H56.3688H56.3676H56.3665H56.3653H56.3642H56.363H56.3618H56.3607H56.3595H56.3584H56.3572H56.3561H56.3549H56.3538H56.3526H56.3514H56.3503H56.3491H56.348H56.3468H56.3457H56.3445H56.3433H56.3422H56.341H56.3399H56.3387H56.3376H56.3364H56.3353H56.3341H56.3329H56.3318H56.3306H56.3295H56.3283H56.3272H56.326H56.3249H56.3237H56.3226H56.3214H56.3202H56.3191H56.3179H56.3168H56.3156H56.3145H56.3133H56.3122H56.311H56.3099H56.3087H56.3076H56.3064H56.3053H56.3041H56.303H56.3018H56.3006H56.2995H56.2983H56.2972H56.296H56.2949H56.2937H56.2926H56.2914H56.2903H56.2891H56.288H56.2868H56.2857H56.2845H56.2834H56.2822H56.2811H56.2799H56.2788H56.2776H56.2765H56.2753H56.2742H56.273H56.2719H56.2707H56.2696H56.2684H56.2673H56.2661H56.265H56.2639H56.2627H56.2616H56.2604H56.2593H56.2581H56.257H56.2558H56.2547H56.2535H56.2524H56.2512H56.2501H56.2489H56.2478H56.2467H56.2455H56.2444H56.2432H56.2421H56.2409H56.2398H56.2386H56.2375H56.2364H56.2352H56.2341H56.2329H56.2318H56.2306H56.2295H56.2283H56.2272H56.2261H56.2249H56.2238H56.2226H56.2215H56.2204H56.2192H56.2181H56.2169H56.2158H56.2147H56.2135H56.2124H56.2112H56.2101H56.209H56.2078H56.2067H56.2055H56.2044H56.2033H56.2021H56.201H56.1998H56.1987H56.1976H56.1964H56.1953H56.1942H56.193H56.1919H56.1908H56.1896H56.1885H56.1873H56.1862H56.1851H56.1839H56.1828H56.1817H56.1805H56.1794H56.1783H56.1771H56.176H56.1749H56.1737H56.1726H56.1715H56.1703H56.1692H56.1681H56.1669H56.1658H56.1647H56.1636H56.1624H56.1613H56.1602H56.159H56.1579H56.1568H56.1556H56.1545H56.1534H56.1523H56.1511H56.15H56.1489H56.1477H56.1466H56.1455H56.1444H56.1432H56.1421H56.141H56.1399H56.1387H56.1376H56.1365H56.1354H56.1342H56.1331H56.132H56.1309H56.1297H56.1286H56.1275H56.1264H56.1253H56.1241H56.123H56.1219H56.1208H56.1197H56.1185H56.1174H56.1163H56.1152H56.1141H56.1129H56.1118H56.1107H56.1096H56.1085H56.1073H56.1062H56.1051H56.104H56.1029H56.1018H56.1006H56.0995H56.0984H56.0973H56.0962H56.0951H56.094H56.0928H56.0917H56.0906H56.0895H56.0884H56.0873H56.0862H56.0851H56.0839H56.0828H56.0817H56.0806H56.0795H56.0784H56.0773H56.0762H56.0751H56.074H56.0728H56.0717H56.0706H56.0695H56.0684H56.0673H56.0662H56.0651H56.064H56.0629H56.0618H56.0607H56.0596H56.0585H56.0574H56.0563H56.0552H56.0541H56.053H56.0518H56.0507H56.0496H56.0485H56.0474H56.0463H56.0452H56.0441H56.043H56.0419H56.0408H56.0397H56.0387H56.0376H56.0365H56.0354H56.0343H56.0332H56.0321H56.031H56.0299H56.0288H56.0277H56.0266H56.0255H56.0244H56.0233H56.0222H56.0211H56.02H56.0189H56.0179H56.0168H56.0157H56.0146H56.0135H56.0124H56.0113H56.0102H56.0091H56.0081H56.007H56.0059H56.0048H56.0037H56.0026H56.0015H56.0004H55.9994H55.9983H55.9972H55.9961H55.995H55.9939H55.9929H55.9918H55.9907H55.9896H55.9885H55.9875H55.9864H55.9853H55.9842H55.9831H55.9821H55.981H55.9799H55.9788H55.9777H55.9767H55.9756H55.9745H55.9734H55.9724H55.9713H55.9702H55.9691H55.9681H55.967H55.9659H55.9649H55.9638H55.9627H55.9616H55.9606H55.9595H55.9584H55.9574H55.9563H55.9552H55.9542H55.9531H55.952H55.951H55.9499H55.9488H55.9478H55.9467H55.9456H55.9446H55.9435H55.9424H55.9414H55.9403H55.9393H55.9382H55.9371H55.9361H55.935H55.934H55.9329H55.9318H55.9308H55.9297H55.9287H55.9276H55.9265H55.9255H55.9244H55.9234H55.9223H55.9213H55.9202H55.9192H55.9181H55.9171H55.916H55.915H55.9139H55.9129H55.9118H55.9108H55.9097H55.9087H55.9076H55.9066H55.9055H55.9045H55.9034H55.9024H55.9013H55.9003H55.8992H55.8982H55.8972H55.8961H55.8951H55.894H55.893H55.8919H55.8909H55.8899H55.8888H55.8878H55.8867H55.8857H55.8847H55.8836H55.8826H55.8816H55.8805H55.8795H55.8785H55.8774H55.8764H55.8754H55.8743H55.8733H55.8723H55.8712H55.8702C55.4921 25.9831 55.1303 25.961 54.7879 25.8928C54.5152 25.8472 54.2652 25.7789 54.0162 25.6883L57.1339 25.9801ZM57.1339 25.9801L57.1487 25.982M57.1339 25.9801L57.1487 25.982M57.1487 25.982C57.1937 25.9876 57.2404 25.9948 57.2866 26.0024C57.2595 26.0248 57.23 26.0496 57.198 26.0771C57.1972 26.0775 57.1964 26.078 57.1956 26.0784C57.1798 26.0871 57.1674 26.0969 57.1592 26.104C57.1429 26.1181 57.1288 26.1339 57.1193 26.145C57.1114 26.1543 57.1031 26.1644 57.0969 26.1721C57.0955 26.1739 57.0941 26.1756 57.0929 26.177C57.0923 26.1778 57.0917 26.1785 57.0911 26.1792C56.9253 26.2819 56.7406 26.3843 56.5756 26.4669C56.3868 26.5506 56.1971 26.614 55.9998 26.6798C55.5987 26.8063 55.1555 26.8695 54.713 26.8485C54.3521 26.8272 53.9995 26.764 53.6493 26.5995C53.3144 26.4319 53.0088 26.2058 52.7859 25.8827C52.679 25.7115 52.5782 25.5279 52.5183 25.3284C52.4603 25.135 52.4618 24.925 52.517 24.7594L52.5173 24.7595M57.1487 25.982L52.5173 24.7595M52.5173 24.7595L52.5197 24.7501M52.5173 24.7595L52.5197 24.7501M52.5197 24.7501C52.6193 24.3718 52.8154 24.1104 53.011 23.8497L53.0223 23.8346C53.2171 23.5749 53.4339 23.3147 53.6508 23.0761C53.8734 22.8312 54.0952 22.565 54.2935 22.3227C54.3194 22.291 54.3458 22.2588 54.3725 22.2263C54.547 22.0135 54.7348 21.7846 54.8898 21.5719C55.0899 21.327 55.2458 21.1043 55.3985 20.8861L55.3995 20.8847L55.3998 20.8849M52.5197 24.7501L55.3998 20.8849M55.3998 20.8849L55.4052 20.8759M55.3998 20.8849L55.4052 20.8759M55.4052 20.8759C55.6086 20.5369 55.7493 20.1906 55.7978 19.8381L55.7997 19.8307L55.8118 19.7848C55.8226 19.7444 55.8388 19.6848 55.8605 19.6088L55.8633 19.5989M55.4052 20.8759L55.8633 19.5989M55.8633 19.5989L55.8648 19.5888C55.8875 19.4296 55.9122 19.2128 55.8639 18.9471C55.815 18.678 55.6709 18.3464 55.4131 18.0417C55.1608 17.7435 54.8404 17.4689 54.4964 17.2625C54.3205 17.157 54.1577 17.069 54.0103 16.9953M55.8633 19.5989L54.0103 16.9953M54.0103 16.9953C54.1976 17.0199 54.4057 17.0533 54.6316 17.0985L54.6832 16.9483C54.708 16.9521 54.7492 16.9607 54.8034 16.9747C54.7984 17.0018 54.7861 17.0258 54.77 17.0446C54.7366 17.0836 54.6946 17.0919 54.6887 17.093C54.6885 17.0931 54.6883 17.0931 54.6882 17.0931C54.6761 17.0957 54.6668 17.0959 54.6638 17.096C54.6597 17.0961 54.6569 17.0959 54.6561 17.0959C54.6554 17.0958 54.655 17.0958 54.655 17.0958C54.655 17.0958 54.6559 17.0959 54.658 17.0962C54.6723 17.0982 54.7035 17.1043 54.7511 17.1162C54.8443 17.1395 54.9873 17.1817 55.158 17.2457L55.158 17.2458L55.1607 17.2467C55.5209 17.3739 56.0031 17.6052 56.4211 18.0442L56.4211 18.0442L56.4237 18.0468C56.6265 18.2496 56.791 18.5159 56.8941 18.8046C56.998 19.0956 57.0393 19.3862 57.0393 19.6115C57.0393 19.8373 56.9979 20.0411 56.959 20.1577C56.9363 20.226 56.9191 20.283 56.9076 20.3233C56.9019 20.3434 56.8975 20.3594 56.8946 20.3705L56.8923 20.3792L54.0103 16.9953Z" fill="#4A4967" stroke="#4A4967" stroke-width="0.3"/>
<path d="M31.5757 53.1311V52.9811H31.4257H31.2225H31.0725V53.1311V55.0426H28.5271V53.1311V52.9811H28.3771H28.1738H28.0238V53.1311V57.4573V57.6073H28.1738H28.3771H28.5271V57.4573V55.5458H31.0725V57.4573V57.6073H31.2225H31.4257H31.5757V57.4573V53.1311Z" fill="#4A4967" stroke="#4A4967" stroke-width="0.3"/>
<path d="M34.4452 53.8684L35.1558 55.7114H33.7347L34.4452 53.8684ZM32.9354 57.5792H33.0386L33.0755 57.4829L33.5612 56.2146H35.3583L35.844 57.4829L35.8809 57.5792H35.9841H36.2164H36.4343L36.3565 57.3756L34.7015 53.0494L34.6646 52.953H34.5614H34.3581H34.2549L34.218 53.0494L32.563 57.3756L32.4851 57.5792H32.7031H32.9354Z" fill="#4A4967" stroke="#4A4967" stroke-width="0.3"/>
<path d="M41.738 53.1321V52.9821H41.588H41.4138H41.3326L41.2882 53.05L39.4975 55.7904L37.7067 53.05L37.6623 52.9821H37.5812H37.3779H37.2279V53.1321V57.4583V57.6083H37.3779H37.5812H37.7312V57.4583V54.0405L39.285 56.4082L39.3294 56.4759H39.4104H39.5556H39.6365L39.681 56.4082L41.2348 54.0405V57.4583V57.6083H41.3848H41.588H41.738V57.4583V53.1321Z" fill="#4A4967" stroke="#4A4967" stroke-width="0.3"/>
<path d="M43.4171 57.6083H43.5671V57.4583V55.9243H44.7527C45.6379 55.9243 46.3254 55.3157 46.3254 54.4387C46.3254 54.0054 46.1559 53.6378 45.8693 53.3799C45.5841 53.1232 45.1911 52.9821 44.7527 52.9821H43.2139H43.0639V53.1321V57.4583V57.6083H43.2139H43.4171ZM44.7818 53.4853C45.1018 53.4853 45.3609 53.5785 45.5382 53.7374C45.7134 53.8945 45.8222 54.1278 45.8222 54.4387C45.8222 54.7442 45.7027 54.9784 45.5183 55.1383C45.3315 55.3001 45.0703 55.392 44.7818 55.392H43.5961V53.4853H44.7818Z" fill="#4A4967" stroke="#4A4967" stroke-width="0.3"/>
<path d="M50.3852 57.5792H50.5352V57.4292V57.226V57.1679V57.0179H50.3852H47.893V55.4887H50.182H50.332V55.3387V55.1355V54.9855H50.182H47.893V53.4563H50.3562H50.5062V53.3063V53.103V52.953H50.3562H47.5107H47.3607V53.103V57.4292V57.5792H47.5107H50.3852Z" fill="#4A4967" stroke="#4A4967" stroke-width="0.3"/>
<path d="M54.5227 57.5315L54.5656 57.6083H54.6536H54.9149H55.1723L55.0454 57.3843L54.1428 55.7915C54.6348 55.5606 54.9778 55.0787 54.9778 54.4677C54.9778 53.5576 54.2568 52.9821 53.4051 52.9821H51.8662H51.7162V53.1321V57.4583V57.6083H51.8662H52.0695H52.2195V57.4583V55.9243H53.4051C53.4088 55.9243 53.4126 55.9243 53.4164 55.9243C53.4832 55.9243 53.5506 55.9243 53.6187 55.9154L54.5227 57.5315ZM53.4051 53.4853C53.7251 53.4853 53.9842 53.5785 54.1615 53.7374C54.3367 53.8945 54.4455 54.1278 54.4455 54.4387C54.4455 54.7468 54.3313 54.9806 54.1515 55.1391C53.9695 55.2995 53.7093 55.392 53.4051 55.392H52.2195V53.4853H53.4051Z" fill="#4A4967" stroke="#4A4967" stroke-width="0.3"/>
<mask id="path-8-inside-1" fill="white">
<path d="M26.1128 50.2286C26.1128 50.1415 26.0838 50.0544 26.0838 49.9673C26.0548 49.764 26.0257 49.5608 25.9967 49.3575C25.9677 48.951 25.9096 48.4865 25.8515 48.0219C25.7354 46.8025 25.5612 43.5215 25.9967 39.1372C26.4322 34.7529 27.3904 29.3524 28.9002 23.9519C29.6551 21.2517 30.5552 18.5804 31.6005 16.0544C31.8618 15.4156 32.1231 14.8059 32.4134 14.1962C32.7038 13.5864 32.9651 12.9767 33.2554 12.396C33.4587 11.9895 33.6619 11.583 33.8652 11.2056C33.9813 11.0023 34.0975 10.7991 34.2136 10.5958C35.0846 8.9989 35.8976 7.7504 36.3622 7.08259C37.3494 5.65988 38.1624 4.55655 39.0044 3.56936C39.2076 3.33708 39.4109 3.07576 39.6431 2.84348C39.8754 2.6112 40.1077 2.37892 40.34 2.14664C40.4561 2.0305 40.5723 1.91436 40.6884 1.79822C40.8045 1.68208 40.9497 1.59498 41.0949 1.47884C41.3562 1.27559 41.6466 1.04332 41.9369 0.811035C41.6466 1.01428 41.3272 1.21752 41.0368 1.39173C40.8916 1.47884 40.7465 1.56594 40.6013 1.65305C40.4561 1.74015 40.34 1.85629 40.1948 1.9434C39.9335 2.14664 39.6431 2.32085 39.3818 2.5241C39.1205 2.72734 38.8592 2.93059 38.5979 3.13383C37.5526 3.94681 36.5074 4.934 35.346 6.29865C34.8233 6.93742 33.8361 8.12785 32.8199 9.72478C32.7038 9.92802 32.5586 10.1313 32.4134 10.3345C32.1811 10.741 31.9489 11.1185 31.6876 11.5249C31.3391 12.1056 31.0198 12.7154 30.7004 13.3251C30.381 13.9348 30.0616 14.5736 29.7422 15.2124C28.5227 17.7675 27.4775 20.4968 26.6064 23.2551C25.7354 26.0134 25.0676 28.8008 24.603 31.472C24.1385 34.1432 23.8481 36.6692 23.7029 38.934C23.5287 41.6923 23.5578 44.0732 23.6449 45.7862C23.4707 45.4088 23.3545 45.1765 23.2674 45.0023C23.1803 44.799 23.1513 44.741 23.1513 44.741C23.1513 44.741 23.1222 44.6829 22.89 44.1603C22.7738 43.899 22.6286 43.5215 22.4254 42.9698C22.2221 42.4182 21.9608 41.6923 21.7286 40.7341C21.8157 41.0245 21.7286 40.7922 21.5834 40.0954C21.5543 39.9212 21.4963 39.7179 21.4672 39.4566C21.4382 39.3405 21.4382 39.1953 21.4092 39.0791C21.4092 39.0211 21.3801 38.934 21.3801 38.8759V38.8178C22.1641 38.8759 20.3058 38.7307 20.48 38.7598V38.7888L20.451 38.8759C20.2478 38.8759 20.1607 38.8469 20.451 38.8759V38.9049C20.3929 39.2243 20.3349 39.5727 20.2768 39.9212C20.2187 40.2986 20.1897 40.7051 20.1316 41.1406C19.9865 42.8537 19.9865 45.0604 20.2768 47.5864C19.1444 44.8571 17.6056 42.1278 15.8635 39.6889C15.6022 39.3114 15.3118 38.934 15.0215 38.5565C14.7311 38.1791 14.4408 37.8306 14.1795 37.4822C13.5988 36.7854 12.989 36.1176 12.4083 35.4498C11.7986 34.84 11.2179 34.2593 10.6662 33.7077C10.4339 33.5044 10.2017 33.3012 9.99842 33.0979C9.56289 32.7205 9.18544 32.3721 8.83702 32.0527C8.4886 31.7623 8.16921 31.53 7.93693 31.3558C7.58851 31.0655 7.24009 30.8332 6.92071 30.5719C6.57229 30.3396 6.2529 30.1364 5.96255 29.9331C5.64317 29.7299 5.35282 29.5557 5.06247 29.3524C4.77212 29.1782 4.45274 29.004 4.19142 28.8588C3.90107 28.7137 3.61072 28.5394 3.32037 28.3943C3.03002 28.2491 2.73967 28.0749 2.44932 27.9297C1.86862 27.6394 1.25889 27.32 0.620117 26.9716C1.22985 27.378 1.81055 27.7555 2.33318 28.133C2.85581 28.5104 3.34941 28.9459 3.843 29.3524C4.10432 29.5557 4.36563 29.7589 4.59791 29.9912C4.85923 30.2235 5.09151 30.4558 5.38186 30.688C5.64317 30.9203 5.93352 31.1816 6.22387 31.4429C6.51422 31.7043 6.80457 31.9946 7.12395 32.314C7.3272 32.5172 7.61755 32.7786 7.93693 33.0689C8.25632 33.3883 8.60474 33.7657 8.98219 34.1432C9.18544 34.3464 9.38868 34.5497 9.59193 34.782C10.1146 35.3627 10.6372 35.9724 11.1598 36.5821C11.6824 37.2499 12.2341 37.9177 12.7567 38.6146C13.0181 38.963 13.2794 39.3405 13.5407 39.6889C13.802 40.0373 14.0633 40.4148 14.2956 40.7922C16.299 43.7828 17.954 47.0638 19.2606 50.1995C19.8993 51.7674 20.451 53.3063 20.8865 54.729C20.9446 54.9032 21.0027 55.0774 21.0607 55.2516C21.1188 55.4258 21.1479 55.6001 21.2059 55.7743C21.293 56.1227 21.3801 56.4711 21.4672 56.7905C21.4963 56.9647 21.5543 57.1099 21.5834 57.2841C21.6124 57.3712 21.6124 57.4583 21.6414 57.5164C22.2221 57.4293 22.4544 57.4002 22.948 57.3131V57.2841C22.948 57.197 22.919 57.1099 22.919 57.0228C22.89 56.8486 22.8609 56.6743 22.8319 56.5001C22.7738 56.1517 22.7157 55.8033 22.6577 55.4258C22.6286 55.2516 22.5996 55.0484 22.5706 54.8742C22.5415 54.7 22.4835 54.4967 22.4544 54.3225C22.2512 53.3353 21.9899 52.2901 21.6995 51.2448C21.4382 49.9092 21.235 48.6607 21.0898 47.4993C20.7994 45.2055 20.8285 43.2311 21.0027 41.6342C21.1479 42.302 21.293 42.8537 21.4092 43.2892C21.5834 43.8699 21.6995 44.2764 21.8157 44.5668C22.0189 45.1184 22.0189 45.1765 22.0189 45.1765C22.0189 45.1765 22.0479 45.2346 22.135 45.4378C22.2221 45.6411 22.3383 46.0185 22.5706 46.5992C22.8028 47.1799 23.1513 47.9929 23.6449 49.0962C23.9062 49.6479 24.1965 50.2576 24.5159 50.9545L24.5449 50.9835C25.1837 50.7512 25.7935 50.548 26.258 50.3738V50.3447V50.2867L26.1128 50.2286Z"/>
</mask>
<path d="M26.1128 50.2286C26.1128 50.1415 26.0838 50.0544 26.0838 49.9673C26.0548 49.764 26.0257 49.5608 25.9967 49.3575C25.9677 48.951 25.9096 48.4865 25.8515 48.0219C25.7354 46.8025 25.5612 43.5215 25.9967 39.1372C26.4322 34.7529 27.3904 29.3524 28.9002 23.9519C29.6551 21.2517 30.5552 18.5804 31.6005 16.0544C31.8618 15.4156 32.1231 14.8059 32.4134 14.1962C32.7038 13.5864 32.9651 12.9767 33.2554 12.396C33.4587 11.9895 33.6619 11.583 33.8652 11.2056C33.9813 11.0023 34.0975 10.7991 34.2136 10.5958C35.0846 8.9989 35.8976 7.7504 36.3622 7.08259C37.3494 5.65988 38.1624 4.55655 39.0044 3.56936C39.2076 3.33708 39.4109 3.07576 39.6431 2.84348C39.8754 2.6112 40.1077 2.37892 40.34 2.14664C40.4561 2.0305 40.5723 1.91436 40.6884 1.79822C40.8045 1.68208 40.9497 1.59498 41.0949 1.47884C41.3562 1.27559 41.6466 1.04332 41.9369 0.811035C41.6466 1.01428 41.3272 1.21752 41.0368 1.39173C40.8916 1.47884 40.7465 1.56594 40.6013 1.65305C40.4561 1.74015 40.34 1.85629 40.1948 1.9434C39.9335 2.14664 39.6431 2.32085 39.3818 2.5241C39.1205 2.72734 38.8592 2.93059 38.5979 3.13383C37.5526 3.94681 36.5074 4.934 35.346 6.29865C34.8233 6.93742 33.8361 8.12785 32.8199 9.72478C32.7038 9.92802 32.5586 10.1313 32.4134 10.3345C32.1811 10.741 31.9489 11.1185 31.6876 11.5249C31.3391 12.1056 31.0198 12.7154 30.7004 13.3251C30.381 13.9348 30.0616 14.5736 29.7422 15.2124C28.5227 17.7675 27.4775 20.4968 26.6064 23.2551C25.7354 26.0134 25.0676 28.8008 24.603 31.472C24.1385 34.1432 23.8481 36.6692 23.7029 38.934C23.5287 41.6923 23.5578 44.0732 23.6449 45.7862C23.4707 45.4088 23.3545 45.1765 23.2674 45.0023C23.1803 44.799 23.1513 44.741 23.1513 44.741C23.1513 44.741 23.1222 44.6829 22.89 44.1603C22.7738 43.899 22.6286 43.5215 22.4254 42.9698C22.2221 42.4182 21.9608 41.6923 21.7286 40.7341C21.8157 41.0245 21.7286 40.7922 21.5834 40.0954C21.5543 39.9212 21.4963 39.7179 21.4672 39.4566C21.4382 39.3405 21.4382 39.1953 21.4092 39.0791C21.4092 39.0211 21.3801 38.934 21.3801 38.8759V38.8178C22.1641 38.8759 20.3058 38.7307 20.48 38.7598V38.7888L20.451 38.8759C20.2478 38.8759 20.1607 38.8469 20.451 38.8759V38.9049C20.3929 39.2243 20.3349 39.5727 20.2768 39.9212C20.2187 40.2986 20.1897 40.7051 20.1316 41.1406C19.9865 42.8537 19.9865 45.0604 20.2768 47.5864C19.1444 44.8571 17.6056 42.1278 15.8635 39.6889C15.6022 39.3114 15.3118 38.934 15.0215 38.5565C14.7311 38.1791 14.4408 37.8306 14.1795 37.4822C13.5988 36.7854 12.989 36.1176 12.4083 35.4498C11.7986 34.84 11.2179 34.2593 10.6662 33.7077C10.4339 33.5044 10.2017 33.3012 9.99842 33.0979C9.56289 32.7205 9.18544 32.3721 8.83702 32.0527C8.4886 31.7623 8.16921 31.53 7.93693 31.3558C7.58851 31.0655 7.24009 30.8332 6.92071 30.5719C6.57229 30.3396 6.2529 30.1364 5.96255 29.9331C5.64317 29.7299 5.35282 29.5557 5.06247 29.3524C4.77212 29.1782 4.45274 29.004 4.19142 28.8588C3.90107 28.7137 3.61072 28.5394 3.32037 28.3943C3.03002 28.2491 2.73967 28.0749 2.44932 27.9297C1.86862 27.6394 1.25889 27.32 0.620117 26.9716C1.22985 27.378 1.81055 27.7555 2.33318 28.133C2.85581 28.5104 3.34941 28.9459 3.843 29.3524C4.10432 29.5557 4.36563 29.7589 4.59791 29.9912C4.85923 30.2235 5.09151 30.4558 5.38186 30.688C5.64317 30.9203 5.93352 31.1816 6.22387 31.4429C6.51422 31.7043 6.80457 31.9946 7.12395 32.314C7.3272 32.5172 7.61755 32.7786 7.93693 33.0689C8.25632 33.3883 8.60474 33.7657 8.98219 34.1432C9.18544 34.3464 9.38868 34.5497 9.59193 34.782C10.1146 35.3627 10.6372 35.9724 11.1598 36.5821C11.6824 37.2499 12.2341 37.9177 12.7567 38.6146C13.0181 38.963 13.2794 39.3405 13.5407 39.6889C13.802 40.0373 14.0633 40.4148 14.2956 40.7922C16.299 43.7828 17.954 47.0638 19.2606 50.1995C19.8993 51.7674 20.451 53.3063 20.8865 54.729C20.9446 54.9032 21.0027 55.0774 21.0607 55.2516C21.1188 55.4258 21.1479 55.6001 21.2059 55.7743C21.293 56.1227 21.3801 56.4711 21.4672 56.7905C21.4963 56.9647 21.5543 57.1099 21.5834 57.2841C21.6124 57.3712 21.6124 57.4583 21.6414 57.5164C22.2221 57.4293 22.4544 57.4002 22.948 57.3131V57.2841C22.948 57.197 22.919 57.1099 22.919 57.0228C22.89 56.8486 22.8609 56.6743 22.8319 56.5001C22.7738 56.1517 22.7157 55.8033 22.6577 55.4258C22.6286 55.2516 22.5996 55.0484 22.5706 54.8742C22.5415 54.7 22.4835 54.4967 22.4544 54.3225C22.2512 53.3353 21.9899 52.2901 21.6995 51.2448C21.4382 49.9092 21.235 48.6607 21.0898 47.4993C20.7994 45.2055 20.8285 43.2311 21.0027 41.6342C21.1479 42.302 21.293 42.8537 21.4092 43.2892C21.5834 43.8699 21.6995 44.2764 21.8157 44.5668C22.0189 45.1184 22.0189 45.1765 22.0189 45.1765C22.0189 45.1765 22.0479 45.2346 22.135 45.4378C22.2221 45.6411 22.3383 46.0185 22.5706 46.5992C22.8028 47.1799 23.1513 47.9929 23.6449 49.0962C23.9062 49.6479 24.1965 50.2576 24.5159 50.9545L24.5449 50.9835C25.1837 50.7512 25.7935 50.548 26.258 50.3738V50.3447V50.2867L26.1128 50.2286Z" fill="#4A4967" stroke="#4A4967" stroke-width="0.6" mask="url(#path-8-inside-1)"/>
<path d="M30.416 36.6396L30.4159 36.6396C30.0824 37.1121 29.8058 37.7484 29.8336 38.5805L29.8337 38.5855H29.8336C29.8336 38.7974 29.8874 39.1293 30.0016 39.5587C30.1442 39.9855 30.3403 40.458 30.7001 40.9008C31.0587 41.3421 31.6122 41.7296 32.2468 41.8953C32.5788 41.9783 32.9108 42.006 33.2725 41.9782C33.6176 41.9517 33.9418 41.8188 34.2185 41.6534C34.4933 41.4605 34.6866 41.2676 34.8836 41.0424C35.0586 40.8383 35.2281 40.6403 35.3686 40.4437C35.517 40.2359 35.6652 40.0581 35.8096 39.8848L35.8109 39.8832C35.8806 39.7996 35.9437 39.7155 36.0052 39.6323C36.0142 39.6201 36.0233 39.6077 36.0324 39.5954C36.0839 39.5256 36.1352 39.456 36.1865 39.3919L36.1919 39.3851L36.1921 39.3853C36.3189 39.2444 36.4251 39.11 36.5184 38.988C36.5431 38.9556 36.5673 38.9237 36.5909 38.8925C36.6546 38.8083 36.7142 38.7296 36.7691 38.6637C36.8375 38.5816 36.8847 38.5141 36.9142 38.4681C36.929 38.4451 36.9393 38.4276 36.9457 38.4163L36.9524 38.4042L36.9534 38.4023L36.9534 38.4022L36.9535 38.4022L36.9535 38.4021L36.9536 38.4019L36.9537 38.4018L36.9595 38.3902L36.9676 38.3794L36.9676 38.3794L36.9676 38.3794L36.9676 38.3794L36.9677 38.3792L36.9683 38.3783L36.9711 38.3747L36.982 38.3598C36.9917 38.3467 37.0058 38.3272 37.0236 38.3023C37.0585 38.2534 37.1074 38.1837 37.1632 38.1C37.2179 38.0049 37.2898 37.8987 37.3669 37.7848C37.3762 37.771 37.3857 37.757 37.3952 37.743C37.4856 37.6092 37.5849 37.4602 37.6839 37.2905C38.078 36.6148 38.422 35.5602 38.6236 34.4382C38.711 33.8556 38.7951 33.2905 38.767 32.7279L38.7666 32.7204H38.7668C38.7668 32.1582 38.6543 31.6212 38.5381 31.098C38.4258 30.5927 38.2287 30.1124 38.0296 29.7136C37.8053 29.3218 37.5543 29.0155 37.3901 28.8508C37.0343 28.523 36.6551 28.334 36.2218 28.252C35.8206 28.1994 35.4729 28.2794 35.1753 28.4146C34.8834 28.5473 34.6703 28.7321 34.4801 28.9756C34.4665 28.9961 34.4533 29.0167 34.4406 29.0375C34.463 29.0269 34.4858 29.0173 34.5089 29.0087C34.7839 28.9055 35.0527 28.9427 35.2705 29.0049C35.4856 29.0663 35.7295 29.1949 35.8472 29.3843C35.9381 29.5061 36.0592 29.6885 36.1511 29.903C36.2446 30.121 36.423 30.6309 36.4823 31.4613L36.4823 31.4616C36.5404 32.3041 36.5988 33.2666 36.5988 34.2303C36.5988 35.0939 36.4594 35.911 36.3475 36.5674C36.3336 36.6488 36.3201 36.7278 36.3074 36.804C36.292 36.9845 36.262 37.1487 36.2328 37.2909C36.2239 37.3342 36.2153 37.3746 36.2073 37.4124C36.1878 37.5041 36.1714 37.5808 36.1618 37.6486L36.1603 37.6587L36.1575 37.6686C36.1287 37.7693 36.1072 37.8483 36.0929 37.9019C36.0857 37.9287 36.0804 37.9492 36.0769 37.9629L36.0729 37.9783L36.072 37.982L36.0717 37.9829L36.0717 37.9831L30.416 36.6396ZM30.416 36.6396L30.4182 36.6363C30.6087 36.3505 30.8249 36.1202 31.0577 35.8984L30.416 36.6396Z" fill="#4A4967" stroke="#4A4967" stroke-width="0.3"/>
<mask id="path-10-inside-2" fill="white">
<path d="M41.2695 25.2295C42.1987 26.3909 42.5471 27.6103 42.9536 28.8588C43.331 30.1073 43.7085 31.4139 44.3182 33.0689C44.4053 33.2721 44.4924 33.5044 44.6376 33.8819C44.7828 34.2593 44.986 34.6658 45.1893 35.1594C45.4215 35.682 45.6538 36.1466 45.9442 36.7273C45.9442 36.7563 45.9732 36.7563 45.9732 36.7854H46.0022C46.0313 36.7854 46.0603 36.7854 46.0603 36.7854C46.1184 36.7854 46.1474 36.7854 46.2055 36.7563C46.2926 36.7563 46.4087 36.7273 46.5249 36.7273C46.5539 36.7273 46.5829 36.7273 46.641 36.7273C46.67 36.7273 46.67 36.7273 46.6991 36.7273C46.7281 36.7273 46.7281 36.7563 46.7571 36.7563C46.7862 36.7563 46.8442 36.7273 46.8733 36.7273C46.9314 36.7273 46.9894 36.7273 47.0475 36.6983C47.1056 36.7273 47.2217 36.6112 47.3088 36.5531C47.3669 36.5241 47.3959 36.495 47.454 36.437C47.483 36.437 47.483 36.4079 47.5121 36.3789H47.5701V36.3499V36.3208V36.2337C47.5411 35.5369 47.5121 34.84 47.5121 34.1142C47.5121 33.8238 47.483 33.5625 47.483 33.3302C47.483 33.185 47.483 33.156 47.483 33.0979V32.9237C47.483 32.4301 47.483 31.9656 47.483 31.501C47.5121 30.5719 47.5992 29.6718 47.6863 28.9169C47.7734 28.162 47.9185 27.5232 48.0056 27.0587C48.0928 26.6231 48.1508 26.3618 48.1508 26.3618C48.1508 26.3618 48.1508 26.3328 48.1799 26.2747C48.1799 26.2457 48.1799 26.2457 48.2089 26.2166C48.2089 26.1876 48.2089 26.2166 48.2089 26.2166C48.2089 26.2166 48.2089 26.2166 48.2089 26.1876C48.2089 26.1586 48.2089 26.1876 48.2089 26.1876V26.2166C48.2089 26.2457 48.1799 26.3909 48.1799 26.2747C48.1799 26.2457 48.1799 26.2457 48.1799 26.2166C48.267 26.3328 48.325 26.478 48.4121 26.6231C48.5863 26.9135 48.7606 27.2038 48.9638 27.5232C49.167 27.8426 49.3703 28.162 49.5735 28.5104C49.7768 28.8298 50.0091 29.1492 50.2123 29.4976C50.4156 29.846 50.6769 30.1073 50.9091 30.2525C50.9672 30.2815 51.0253 30.3106 51.0834 30.3686C51.1414 30.3977 51.1995 30.4267 51.2285 30.4267C51.3447 30.4558 51.4318 30.4848 51.5479 30.5138C51.6641 30.5429 51.7802 30.5429 51.9254 30.5429C52.0415 30.5138 52.1867 30.5138 52.3319 30.4558C52.8545 30.2815 53.1448 29.9331 53.3771 29.5266C53.4062 29.4686 53.4352 29.4105 53.4642 29.3524C53.4933 29.2944 53.4933 29.2072 53.5223 29.1201C53.5513 28.975 53.5804 28.8298 53.6094 28.6556C53.6675 28.3652 53.7255 28.0749 53.7836 27.7845C53.7836 27.7265 53.8126 27.6394 53.8126 27.5523L53.8417 27.4071C53.8417 27.349 53.8707 27.2619 53.8707 27.2038C53.8998 27.0587 53.8998 26.9135 53.9288 26.7973C53.9869 26.2747 54.0449 25.7811 54.103 25.3746C54.2191 24.5326 54.3062 23.9229 54.3643 23.5164C54.6256 21.8033 54.7708 20.4387 54.945 19.1321C55.1192 17.8255 55.2934 16.577 55.8161 15.1833C54.5966 17.8546 53.2029 19.5386 52.1867 23.0228C52.0705 23.4583 51.8963 24.0971 51.7221 24.9391C51.635 25.3746 51.5479 25.8682 51.4608 26.4199C51.4318 26.6522 51.4027 26.8844 51.3737 27.1458V27.1748L51.4027 27.1458C51.4318 27.1458 51.3737 27.0877 51.3447 27.0587L51.2576 26.9425L51.0834 26.7102C50.9672 26.5651 50.8511 26.4199 50.7349 26.2747C50.5027 25.9844 50.2994 25.694 50.0962 25.4617C49.98 25.3166 49.8929 25.2004 49.8058 25.0843C49.6316 24.852 49.4574 24.6197 49.2832 24.3874C48.6154 23.4293 48.1799 23.0518 47.9476 22.7615C47.8024 22.6163 47.6863 22.4711 47.5992 22.355C47.5411 22.2969 47.483 22.2389 47.454 22.1808L47.4249 22.1227V22.1517V22.2098C47.4249 22.2969 47.3959 22.355 47.3959 22.4421C47.3088 23.0518 47.3088 23.4583 47.2798 23.8648C47.2507 24.2713 47.2217 24.5907 47.2217 24.881C47.1927 25.0843 47.1927 25.2875 47.1636 25.4327C47.1056 26.0424 47.1056 26.1876 47.1056 26.1876C47.1056 26.1876 47.1056 26.4489 47.0765 26.9135C47.0765 27.378 47.0475 28.0458 47.0185 28.8008C46.9894 29.5847 46.9314 30.4558 46.8442 31.3849C46.7862 31.8494 46.7281 32.314 46.67 32.8076L46.641 32.9818C46.641 33.0399 46.612 33.127 46.612 33.0979C46.641 33.0979 46.612 33.0979 46.612 33.0979C46.612 33.127 46.641 33.185 46.641 33.2141C46.641 33.2431 46.641 33.2141 46.641 33.2141C46.641 33.185 46.641 33.185 46.612 33.156C46.612 33.127 46.5829 33.0689 46.5829 33.0689C46.5829 33.0689 46.5829 33.0689 46.5829 33.0399C46.5829 32.9528 46.5829 32.8947 46.5829 32.8076C46.5829 32.8947 46.5829 32.9818 46.5829 33.0399V33.0979C46.5829 33.0689 46.5829 33.0399 46.5829 33.0399C46.4378 32.6624 46.3216 32.4011 46.2345 32.1979C45.5086 30.5719 44.7537 29.3524 43.9698 28.2491C43.1278 27.2619 42.2567 26.3037 41.2695 25.2295Z"/>
</mask>
<path d="M41.2695 25.2295C42.1987 26.3909 42.5471 27.6103 42.9536 28.8588C43.331 30.1073 43.7085 31.4139 44.3182 33.0689C44.4053 33.2721 44.4924 33.5044 44.6376 33.8819C44.7828 34.2593 44.986 34.6658 45.1893 35.1594C45.4215 35.682 45.6538 36.1466 45.9442 36.7273C45.9442 36.7563 45.9732 36.7563 45.9732 36.7854H46.0022C46.0313 36.7854 46.0603 36.7854 46.0603 36.7854C46.1184 36.7854 46.1474 36.7854 46.2055 36.7563C46.2926 36.7563 46.4087 36.7273 46.5249 36.7273C46.5539 36.7273 46.5829 36.7273 46.641 36.7273C46.67 36.7273 46.67 36.7273 46.6991 36.7273C46.7281 36.7273 46.7281 36.7563 46.7571 36.7563C46.7862 36.7563 46.8442 36.7273 46.8733 36.7273C46.9314 36.7273 46.9894 36.7273 47.0475 36.6983C47.1056 36.7273 47.2217 36.6112 47.3088 36.5531C47.3669 36.5241 47.3959 36.495 47.454 36.437C47.483 36.437 47.483 36.4079 47.5121 36.3789H47.5701V36.3499V36.3208V36.2337C47.5411 35.5369 47.5121 34.84 47.5121 34.1142C47.5121 33.8238 47.483 33.5625 47.483 33.3302C47.483 33.185 47.483 33.156 47.483 33.0979V32.9237C47.483 32.4301 47.483 31.9656 47.483 31.501C47.5121 30.5719 47.5992 29.6718 47.6863 28.9169C47.7734 28.162 47.9185 27.5232 48.0056 27.0587C48.0928 26.6231 48.1508 26.3618 48.1508 26.3618C48.1508 26.3618 48.1508 26.3328 48.1799 26.2747C48.1799 26.2457 48.1799 26.2457 48.2089 26.2166C48.2089 26.1876 48.2089 26.2166 48.2089 26.2166C48.2089 26.2166 48.2089 26.2166 48.2089 26.1876C48.2089 26.1586 48.2089 26.1876 48.2089 26.1876V26.2166C48.2089 26.2457 48.1799 26.3909 48.1799 26.2747C48.1799 26.2457 48.1799 26.2457 48.1799 26.2166C48.267 26.3328 48.325 26.478 48.4121 26.6231C48.5863 26.9135 48.7606 27.2038 48.9638 27.5232C49.167 27.8426 49.3703 28.162 49.5735 28.5104C49.7768 28.8298 50.0091 29.1492 50.2123 29.4976C50.4156 29.846 50.6769 30.1073 50.9091 30.2525C50.9672 30.2815 51.0253 30.3106 51.0834 30.3686C51.1414 30.3977 51.1995 30.4267 51.2285 30.4267C51.3447 30.4558 51.4318 30.4848 51.5479 30.5138C51.6641 30.5429 51.7802 30.5429 51.9254 30.5429C52.0415 30.5138 52.1867 30.5138 52.3319 30.4558C52.8545 30.2815 53.1448 29.9331 53.3771 29.5266C53.4062 29.4686 53.4352 29.4105 53.4642 29.3524C53.4933 29.2944 53.4933 29.2072 53.5223 29.1201C53.5513 28.975 53.5804 28.8298 53.6094 28.6556C53.6675 28.3652 53.7255 28.0749 53.7836 27.7845C53.7836 27.7265 53.8126 27.6394 53.8126 27.5523L53.8417 27.4071C53.8417 27.349 53.8707 27.2619 53.8707 27.2038C53.8998 27.0587 53.8998 26.9135 53.9288 26.7973C53.9869 26.2747 54.0449 25.7811 54.103 25.3746C54.2191 24.5326 54.3062 23.9229 54.3643 23.5164C54.6256 21.8033 54.7708 20.4387 54.945 19.1321C55.1192 17.8255 55.2934 16.577 55.8161 15.1833C54.5966 17.8546 53.2029 19.5386 52.1867 23.0228C52.0705 23.4583 51.8963 24.0971 51.7221 24.9391C51.635 25.3746 51.5479 25.8682 51.4608 26.4199C51.4318 26.6522 51.4027 26.8844 51.3737 27.1458V27.1748L51.4027 27.1458C51.4318 27.1458 51.3737 27.0877 51.3447 27.0587L51.2576 26.9425L51.0834 26.7102C50.9672 26.5651 50.8511 26.4199 50.7349 26.2747C50.5027 25.9844 50.2994 25.694 50.0962 25.4617C49.98 25.3166 49.8929 25.2004 49.8058 25.0843C49.6316 24.852 49.4574 24.6197 49.2832 24.3874C48.6154 23.4293 48.1799 23.0518 47.9476 22.7615C47.8024 22.6163 47.6863 22.4711 47.5992 22.355C47.5411 22.2969 47.483 22.2389 47.454 22.1808L47.4249 22.1227V22.1517V22.2098C47.4249 22.2969 47.3959 22.355 47.3959 22.4421C47.3088 23.0518 47.3088 23.4583 47.2798 23.8648C47.2507 24.2713 47.2217 24.5907 47.2217 24.881C47.1927 25.0843 47.1927 25.2875 47.1636 25.4327C47.1056 26.0424 47.1056 26.1876 47.1056 26.1876C47.1056 26.1876 47.1056 26.4489 47.0765 26.9135C47.0765 27.378 47.0475 28.0458 47.0185 28.8008C46.9894 29.5847 46.9314 30.4558 46.8442 31.3849C46.7862 31.8494 46.7281 32.314 46.67 32.8076L46.641 32.9818C46.641 33.0399 46.612 33.127 46.612 33.0979C46.641 33.0979 46.612 33.0979 46.612 33.0979C46.612 33.127 46.641 33.185 46.641 33.2141C46.641 33.2431 46.641 33.2141 46.641 33.2141C46.641 33.185 46.641 33.185 46.612 33.156C46.612 33.127 46.5829 33.0689 46.5829 33.0689C46.5829 33.0689 46.5829 33.0689 46.5829 33.0399C46.5829 32.9528 46.5829 32.8947 46.5829 32.8076C46.5829 32.8947 46.5829 32.9818 46.5829 33.0399V33.0979C46.5829 33.0689 46.5829 33.0399 46.5829 33.0399C46.4378 32.6624 46.3216 32.4011 46.2345 32.1979C45.5086 30.5719 44.7537 29.3524 43.9698 28.2491C43.1278 27.2619 42.2567 26.3037 41.2695 25.2295Z" fill="#4A4967" stroke="#4A4967" stroke-width="0.6" mask="url(#path-10-inside-2)"/>
<path d="M57.7546 12.1945L57.7528 12.1942L57.7468 12.1929C57.7246 12.1878 57.6834 12.1769 57.6227 12.1604C57.588 12.1509 57.5477 12.1398 57.5026 12.1274C57.3939 12.0974 57.2571 12.0597 57.1029 12.0186L57.1029 12.0186L57.1006 12.018C56.6349 11.9016 56.0215 11.7555 55.378 11.6385C54.7354 11.5217 54.0935 11.4341 53.6277 11.3759L53.6266 11.3758C53.3818 11.347 53.1804 11.3182 53.0403 11.2967C52.9703 11.2859 52.9157 11.2769 52.8787 11.2707L52.8367 11.2635L52.8262 11.2616L52.8239 11.2612L52.8237 11.2612L50.9098 10.8842L50.9088 10.884L48.2128 10.3332C48.1558 10.319 48.098 10.3048 48.0395 10.2905C47.6146 10.1866 47.1521 10.0734 46.7107 9.8532C46.4575 9.71235 46.2101 9.54642 45.9919 9.32818C45.7748 9.11114 45.6101 8.8658 45.4711 8.58882C45.3611 8.31209 45.2832 7.99034 45.3094 7.67557C45.3363 7.35276 45.4433 7.06189 45.6267 6.82608L45.6268 6.82614L45.6299 6.82182C45.9794 6.338 46.4629 6.11903 46.9281 5.91548C47.4069 5.74699 47.8591 5.66191 48.3508 5.57514C48.8336 5.48993 49.2891 5.46128 49.7765 5.46128C50.272 5.46128 50.756 5.46149 51.2096 5.51819L51.2096 5.5182L51.2107 5.51832C51.7061 5.57661 52.1872 5.63354 52.6667 5.77457L52.6666 5.77479L52.6747 5.77668C53.6391 6.00361 54.5477 6.45775 55.3145 7.08256C56.0876 7.71249 56.7461 8.42823 57.29 9.20119L57.29 9.2012L57.2917 9.20357C57.6067 9.63301 57.8932 10.0914 58.1512 10.5787L58.1508 10.5789L58.1565 10.588C58.4408 11.0429 58.6694 11.5281 58.8709 12.0174L58.8705 12.0176L58.8754 12.0274C58.8822 12.0409 58.886 12.0485 58.8885 12.054C58.8886 12.0584 58.8886 12.0651 58.8886 12.0764V12.0913L58.8916 12.1058C58.9028 12.162 58.918 12.2259 58.9357 12.2943C58.8118 12.1894 58.6636 12.0849 58.5001 11.9782C58.4636 11.9426 58.4271 11.906 58.3898 11.8687L58.3879 11.8669C58.2961 11.775 58.1997 11.6787 58.0954 11.5889L57.5478 11.0412L57.5466 11.04C57.1702 10.6637 56.8203 10.3138 56.4411 9.9637C55.7703 9.32208 55.0992 8.7386 54.3991 8.18428L54.3991 8.18424L54.3959 8.18188L53.8733 7.78991L53.3507 7.39794C52.9968 7.13249 52.6144 6.8972 52.239 6.66616L52.236 6.66431C51.4671 6.19117 50.5725 5.83142 49.641 5.77132L49.6407 5.77131C49.1636 5.74149 48.7114 5.77105 48.2571 5.89222L48.257 5.8922L48.2545 5.89293C48.2202 5.90272 48.1844 5.9127 48.1474 5.92298C47.9734 5.97141 47.7749 6.02665 47.5978 6.10253L47.5914 6.1053C47.3926 6.19047 47.1787 6.28213 46.993 6.40594C46.8075 6.52961 46.6425 6.67818 46.5185 6.83809C46.3956 6.99671 46.3065 7.17529 46.2882 7.35784C46.2531 7.70911 46.4008 7.95274 46.6149 8.19741L46.6215 8.20494L46.629 8.21152C46.8751 8.42685 47.1281 8.58561 47.5044 8.67968C47.8633 8.76941 48.2785 8.82846 48.7488 8.85795C49.7032 8.94475 50.6552 9.06027 51.5772 9.23309L51.8631 9.29029L52.0919 9.34749L52.555 9.46324C52.656 9.49078 52.7517 9.51492 52.8448 9.5384C53.0564 9.59179 53.2545 9.64175 53.4707 9.72039L53.4712 9.72057L53.4771 9.72278L53.5004 9.73164L53.5913 9.76652C53.6707 9.79718 53.7863 9.84233 53.9308 9.90016C54.2197 10.0157 54.624 10.1817 55.086 10.3839C56.0088 10.8165 57.1047 11.4223 57.9683 11.998L57.9682 11.9981L57.9728 12.0009C58.0944 12.0757 58.2079 12.1464 58.3123 12.214C58.3637 12.2637 58.4167 12.3131 58.472 12.3607C58.4866 12.3753 58.5108 12.3992 58.5361 12.4203C58.5445 12.4273 58.5543 12.435 58.5651 12.4427C58.3242 12.3508 58.052 12.2709 57.7722 12.1932L57.7159 12.3397C57.6918 12.3343 57.65 12.3232 57.5934 12.3078C57.5973 12.2916 57.6042 12.2749 57.6155 12.2584C57.6443 12.216 57.6843 12.2029 57.6961 12.1994C57.7119 12.1948 57.7247 12.1938 57.73 12.1936C57.7415 12.193 57.7499 12.194 57.7512 12.1941L57.7543 12.1945L57.7546 12.1945ZM57.7546 12.1945L57.755 12.1946L57.7552 12.1946C57.7552 12.1946 57.755 12.1946 57.7546 12.1945Z" fill="#4A4967" stroke="#4A4967" stroke-width="0.3"/>
<path d="M59.7909 10.9685L59.7927 10.9604C59.7981 10.9381 59.8098 10.896 59.828 10.8341C59.8639 10.712 59.9217 10.5244 59.9943 10.2921C60.1367 9.83645 60.3945 9.20535 60.6556 8.59613C60.9446 7.98918 61.2339 7.38167 61.4371 6.94638C61.5527 6.72943 61.6468 6.54857 61.7121 6.42167C61.7449 6.35787 61.7704 6.30769 61.7878 6.27342L61.8076 6.2342L61.8125 6.22436C61.8678 6.12788 61.9302 6.03072 61.9952 5.9297L61.9963 5.92799C62.0609 5.82752 62.128 5.72316 62.188 5.61814L62.3622 5.31327L62.5364 5.0084L62.5369 5.00752C62.798 4.54327 63.0114 4.12021 63.104 3.69033C63.1968 3.31647 63.1685 2.87779 63.038 2.58183C62.9628 2.39608 62.8162 2.2565 62.6184 2.15763C62.4282 2.06254 62.1981 1.99469 61.9324 2.02568C61.6785 2.02721 61.4238 2.09139 61.1994 2.21963C60.9798 2.34511 60.7629 2.53118 60.6069 2.7184L60.6069 2.71836L60.6042 2.72175C60.2645 3.15406 60.0832 3.67387 59.9935 4.21248C59.9043 4.74738 59.9043 5.33827 59.9043 5.85674V5.8631C59.9043 6.40905 59.8757 6.9268 59.8466 7.44907L59.7018 9.04172L59.5278 10.5789L59.5278 10.5792L59.483 10.9828C59.3324 11.5769 59.2641 12.1085 59.2332 12.497C59.2298 12.5082 59.2264 12.5194 59.2231 12.5304C59.1876 12.4677 59.1442 12.3938 59.091 12.3079C59.0843 12.2881 59.076 12.2734 59.0721 12.2664C59.0618 12.2482 59.0493 12.2305 59.0404 12.2181C59.038 12.2147 59.0358 12.2116 59.0336 12.2086C59.019 12.1882 59.0092 12.1744 59.0022 12.1624L58.7473 11.3977C58.7278 11.3105 58.7047 11.2215 58.6824 11.1353C58.6712 11.0925 58.6603 11.0503 58.6501 11.0095C58.6179 10.8806 58.5908 10.7578 58.5775 10.6373L58.5766 10.6292L58.5748 10.6213C58.4611 10.1097 58.4037 9.56709 58.3749 9.02022C58.3461 8.44439 58.3463 7.87166 58.4034 7.30074C58.4599 6.7356 58.6014 6.19653 58.8014 5.65364C59.0024 5.10803 59.2324 4.59052 59.4917 4.07194C59.5131 4.02902 59.5345 3.98605 59.5559 3.9431C59.7977 3.45744 60.0389 2.97299 60.374 2.5606L60.3741 2.56067L60.3776 2.55601C60.5418 2.33701 60.7627 2.11532 61.0132 1.91995C61.2708 1.7484 61.5429 1.5873 61.8359 1.50739C62.1453 1.42301 62.4706 1.37025 62.8189 1.42383C63.1682 1.47757 63.5184 1.63937 63.7865 1.88054C64.3517 2.39205 64.5484 3.15357 64.5211 3.85071C64.4663 4.52973 64.2543 5.10468 64.0556 5.64341C64.0495 5.66002 64.0434 5.6766 64.0373 5.69314C63.924 5.97606 63.782 6.26013 63.6366 6.55093L63.6362 6.55069L63.6315 6.5623C63.5952 6.65319 63.549 6.72585 63.4914 6.81633C63.4664 6.85565 63.4393 6.89832 63.4099 6.94732C63.3651 7.02206 63.3277 7.08923 63.2917 7.15418L63.2913 7.1549C63.2563 7.21784 63.2225 7.27874 63.1825 7.34567L63.1665 7.3663C63.1523 7.38478 63.1317 7.41192 63.1056 7.44726C63.0546 7.51649 62.9826 7.61726 62.8965 7.74614C62.7943 7.86346 62.6787 8.00796 62.5521 8.1662L62.5503 8.16841C62.4196 8.33188 62.2756 8.51181 62.1174 8.69874C61.7984 9.07582 61.4518 9.48015 61.0768 9.884L61.0767 9.88392L61.0728 9.88845C60.7203 10.2997 60.369 10.7682 60.0774 11.1764L60.0773 11.1763L60.0732 11.1827C59.9032 11.4483 59.7672 11.6878 59.6585 11.9014C59.6785 11.7424 59.7025 11.5809 59.7369 11.4092L59.7374 11.4093L59.7389 11.3963L59.7788 11.0367C59.7834 11.0186 59.7881 11.0005 59.7929 10.9824L59.7852 10.9795L59.7908 10.9291C59.7918 10.9362 59.7921 10.9418 59.7922 10.9448C59.7926 10.9558 59.7915 10.9648 59.7909 10.9685ZM59.7909 10.9685L59.7908 10.969L59.7909 10.9685Z" fill="#4A4967" stroke="#4A4967" stroke-width="0.3"/>
<path d="M61.4993 31.2685C61.4901 31.305 61.4828 31.3418 61.4782 31.3754L61.4589 31.3948L61.4149 31.4387V31.5009C61.4149 31.4819 61.4201 31.4576 61.4356 31.4344C61.445 31.4203 61.456 31.4099 61.4665 31.4024C61.4696 31.4001 61.4727 31.398 61.4757 31.3963C61.4752 31.4008 61.4748 31.4053 61.4745 31.4097C61.4743 31.4098 61.4742 31.4099 61.4741 31.41C61.4689 31.4143 61.4638 31.4189 61.4589 31.4238L61.4731 31.438C61.473 31.4396 61.473 31.4412 61.473 31.4428V31.443V31.4431V31.4433V31.4435V31.4436V31.4438V31.444V31.4441V31.4443V31.4445V31.4447V31.4448V31.445V31.4452V31.4453V31.4455V31.4457V31.4458V31.446V31.4462V31.4464V31.4465V31.4467V31.4469V31.447V31.4472V31.4474V31.4475V31.4477V31.4479V31.4481V31.4482V31.4484V31.4486V31.4487V31.4489V31.4491V31.4492V31.4494V31.4496V31.4497V31.4499V31.4501V31.4503V31.4504V31.4506V31.4508V31.4509V31.4511V31.4513V31.4514V31.4516V31.4518V31.4519V31.4521V31.4523V31.4524V31.4526V31.4528V31.4529V31.4531V31.4533V31.4534V31.4536V31.4538V31.4539V31.4541V31.4543V31.4545V31.4546V31.4548V31.455V31.4551V31.4553V31.4555V31.4556V31.4558V31.4559V31.4561V31.4563V31.4564V31.4566V31.4568V31.4569V31.4571V31.4573V31.4574V31.4576V31.4578V31.4579V31.4581V31.4583V31.4584V31.4586V31.4588V31.4589V31.4591V31.4593V31.4594V31.4596V31.4597V31.4599V31.4601V31.4602V31.4604V31.4606V31.4607V31.4609V31.461V31.4612V31.4614V31.4615V31.4617V31.4619V31.462V31.4622V31.4623V31.4625V31.4627V31.4628V31.463V31.4631V31.4633V31.4635V31.4636V31.4638V31.4639V31.4641V31.4643V31.4644V31.4646V31.4647V31.4649V31.4651V31.4652V31.4654V31.4655V31.4657V31.4658V31.466V31.4662V31.4663V31.4665V31.4666V31.4668V31.4669V31.4671V31.4673V31.4674V31.4676V31.4677V31.4679V31.468V31.4682V31.4683V31.4685V31.4687V31.4688V31.469V31.4691V31.4693V31.4694V31.4696V31.4697V31.4699V31.47V31.4702V31.4703V31.4705V31.4706V31.4708V31.4709V31.4711V31.4712V31.4714V31.4715V31.4717V31.4718V31.472V31.4721V31.4723V31.4724V31.4726V31.4727V31.4729V31.473V31.4732V31.4733V31.4735V31.4736V31.4738V31.4739V31.4741V31.4742V31.4744V31.4745V31.4746V31.4748V31.4749V31.4751V31.4752V31.4754V31.4755V31.4757V31.4758V31.4759V31.4761V31.4762V31.4764V31.4765V31.4766V31.4768V31.4769V31.4771V31.4772V31.4773V31.4775V31.4776V31.4778V31.4779V31.478V31.4782V31.4783V31.4785V31.4786V31.4787V31.4789V31.479V31.4791V31.4793V31.4794V31.4795V31.4797V31.4798V31.48V31.4801V31.4802V31.4804V31.4805V31.4806V31.4808V31.4809V31.481V31.4811V31.4813V31.4814V31.4815V31.4817V31.4818V31.4819V31.4821V31.4822V31.4823V31.4824V31.4826V31.4827V31.4828V31.483V31.4831V31.4832V31.4833V31.4835V31.4836V31.4837V31.4838V31.484V31.4841V31.4842V31.4843V31.4845V31.4846V31.4847V31.4848V31.4849V31.4851V31.4852V31.4853V31.4854V31.4855V31.4857V31.4858V31.4859V31.486V31.4861V31.4863V31.4864V31.4865V31.4866V31.4867V31.4868V31.487V31.4871V31.4872V31.4873V31.4874V31.4875V31.4876V31.4878V31.4879V31.488V31.4881V31.4882V31.4883V31.4884V31.4885V31.4886V31.4888V31.4889V31.489V31.4891V31.4892V31.4893V31.4894V31.4895V31.4896V31.4897V31.4898V31.4899V31.49V31.4901V31.4902V31.4903V31.4904V31.4905V31.4906V31.4907V31.4908V31.4909V31.491V31.4911V31.4912V31.4913V31.4914V31.4915V31.4916V31.4917V31.4918V31.4919V31.492V31.4921V31.4922V31.4923V31.4924V31.4925V31.4926V31.4927V31.4928V31.4929V31.493V31.493V31.4931V31.4932V31.4933V31.4934V31.4935V31.4936V31.4937V31.4938V31.4938V31.4939V31.494V31.4941V31.4942V31.4943V31.4944V31.4944V31.4945V31.4946V31.4947V31.4948V31.4949V31.4949V31.495V31.4951V31.4952V31.4952V31.4953V31.4954V31.4955V31.4956V31.4956V31.4957V31.4958V31.4959V31.4959V31.496V31.4961V31.4962V31.4962V31.4963V31.4964V31.4964V31.4965V31.4966V31.4966V31.4967V31.4968V31.4969V31.4969V31.497V31.4971V31.4971V31.4972V31.4972V31.4973V31.4974V31.4974V31.4975V31.4976V31.4976V31.4977V31.4977V31.4978V31.4979V31.4979V31.498V31.498V31.4981V31.4982V31.4982V31.4983V31.4983V31.4984V31.4984V31.4985V31.4985V31.4986V31.4986V31.4987V31.4987V31.4988V31.4988V31.4989V31.4989V31.499V31.499V31.4991V31.4991V31.4992V31.4992V31.4993V31.4993V31.4993V31.4994V31.4994V31.4995V31.4995V31.4995V31.4996V31.4996V31.4997V31.4997V31.4997V31.4998V31.4998V31.4998V31.4999V31.4999V31.5V31.5V31.5V31.5V31.5001V31.5001V31.5001V31.5002V31.5002V31.5002V31.5003V31.5003V31.5003V31.5003V31.5004V31.5004V31.5004V31.5004V31.5005V31.5005V31.5005V31.5005V31.5005V31.5006V31.5006V31.5006V31.5006V31.5006V31.5006V31.5007V31.5007V31.5007V31.5007V31.5007V31.5008V31.5008V31.5008V31.5008V31.5008V31.5009V31.6509H61.5359V31.6799H61.5361H61.5362H61.5365H61.5649H61.6271L61.6583 31.6487C61.6594 31.6485 61.6629 31.6478 61.6667 31.6468C61.6677 31.6466 61.676 31.6446 61.6859 31.6407C61.6881 31.6398 61.6972 31.6363 61.7086 31.6294C61.806 31.6614 61.9653 31.712 62.1673 31.7625C62.386 31.8172 62.6658 31.9287 62.8915 32.0415L62.8915 32.0415L62.8948 32.0431C63.3672 32.2654 63.7861 32.6 64.1223 32.9921L64.1222 32.9922L64.1261 32.9964C64.8292 33.7557 65.2755 34.7642 65.2476 35.8523H65.2476V35.8561C65.2476 36.9161 64.8014 37.9255 64.127 38.6857L63.9849 38.8277L63.9677 38.845L63.9571 38.8662C63.9571 38.8661 63.955 38.8695 63.9491 38.8761C63.9424 38.8835 63.9339 38.8917 63.9244 38.8998C63.9151 38.9077 63.9064 38.9145 63.8999 38.9192L63.8928 38.9243L63.8916 38.9251L63.8915 38.925L63.8848 38.9299L63.7687 39.017L63.7602 39.0234L63.7526 39.031C63.7074 39.0763 63.6346 39.1255 63.5432 39.1865L63.5429 39.186L63.5327 39.1941C63.3944 39.3048 63.229 39.4149 63.0658 39.4965L62.8044 39.6271L62.5472 39.7558C62.4558 39.7946 62.3699 39.8212 62.283 39.8455C62.2611 39.8517 62.2386 39.8578 62.2156 39.864C62.1535 39.8809 62.0885 39.8986 62.0246 39.9194L62.0022 39.9225C61.9787 39.9256 61.9439 39.93 61.8991 39.9354C61.8096 39.9461 61.6804 39.9605 61.5223 39.9749L61.521 39.975C61.2341 40.0037 60.8014 40.0326 60.3076 40.0616L60.3071 40.0616C59.8355 40.0911 59.2912 40.1798 58.8889 40.3655L58.8889 40.3654L58.8847 40.3675C58.6663 40.4768 58.5022 40.7175 58.386 40.9209C58.2602 41.1412 58.169 41.4175 58.1094 41.6558L58.1094 41.6557L58.1083 41.6607C58.0641 41.8667 58.0345 42.0584 58.0154 42.235C57.9952 42.0341 57.9865 41.8195 57.9977 41.5953C57.998 41.5921 57.9981 41.5893 57.9982 41.5874C57.9984 41.5831 57.9985 41.5791 57.9985 41.576L57.8467 41.572C57.8453 41.5518 57.8441 41.5038 57.8471 41.4327C57.9255 41.4317 57.966 41.4898 57.9708 41.4967L57.9709 41.4969C57.9822 41.5131 57.9875 41.5277 57.9891 41.5319C57.9929 41.5425 57.9945 41.5512 57.9949 41.5532L57.9949 41.5533L57.9961 41.5601C57.9962 41.5614 57.9963 41.5621 57.9963 41.5621C57.9964 41.5621 57.996 41.5577 57.9957 41.5473C57.9949 41.5225 57.9948 41.4769 57.9983 41.4135C58.0051 41.287 58.0258 41.0926 58.0816 40.8554L58.0816 40.8554L58.082 40.8536C58.1362 40.6095 58.2425 40.3198 58.5062 40.0561C58.7791 39.7832 59.1098 39.5891 59.4193 39.4483C59.7465 39.3061 60.0749 39.1918 60.3784 39.0906C60.4394 39.0703 60.4996 39.0504 60.5588 39.0309C60.789 38.9549 61.0028 38.8844 61.1797 38.8139C61.4133 38.7408 61.5896 38.6747 61.7085 38.6264C61.7684 38.602 61.8138 38.5822 61.8446 38.5682C61.86 38.5612 61.8718 38.5557 61.8799 38.5519L61.8894 38.5473L61.892 38.546L61.8929 38.5456L61.8931 38.5454L61.8933 38.5454L61.8933 38.5454L61.8263 38.4112L61.8933 38.5453C62.0705 38.4568 62.2825 38.3363 62.468 38.1829C62.5651 38.1168 62.6586 38.0233 62.7394 37.9424L62.7453 37.9365L62.8034 37.8785L62.8324 37.8494L62.8324 37.8494L62.7263 37.7434L62.8325 37.8494L62.8325 37.8493L62.8326 37.8492L62.8329 37.849L62.8333 37.8485L62.8345 37.8473L62.8373 37.8444L62.8448 37.836C62.8504 37.8294 62.8579 37.82 62.8657 37.8084C62.8735 37.7967 62.8874 37.7742 62.8965 37.744L62.936 37.6848C62.9812 37.6243 63.0258 37.5574 63.0677 37.4945L63.0689 37.4927C63.113 37.4266 63.1542 37.3649 63.1948 37.3107L63.2019 37.3012L63.2075 37.2906C63.5131 36.71 63.6066 36.0648 63.4829 35.4768C63.3599 34.8929 63.0239 34.3143 62.5674 33.8882L62.5674 33.8881L62.5638 33.885C62.3193 33.6711 62.0726 33.5167 61.7658 33.394L61.7101 33.5333L61.7658 33.394C61.6686 33.3551 61.5436 33.3153 61.3993 33.2692C61.3207 33.2442 61.2364 33.2173 61.1478 33.1878C60.9084 33.108 60.6117 32.947 60.3403 32.6485C60.0787 32.3607 59.9438 31.9338 59.9438 31.588C59.9438 31.237 60.0239 30.9375 60.108 30.6841C60.2211 30.4308 60.3584 30.1866 60.4897 30.029L60.4901 30.0293L60.4966 30.0201C60.5674 29.921 60.6384 29.8287 60.7112 29.7341L60.7119 29.7331C60.7826 29.6412 60.855 29.5471 60.9276 29.4457C61.5479 28.7429 62.3113 28.2609 63.0588 27.8584C63.4326 27.6571 63.807 27.477 64.1808 27.2992C64.2167 27.2822 64.2525 27.2651 64.2884 27.2481C64.6253 27.088 64.9619 26.928 65.2926 26.7561C66.0315 26.3718 66.6841 25.8976 67.2484 25.3036C67.8132 24.709 68.2585 23.9967 68.5555 23.2549C68.8825 22.511 69.0601 21.6802 69.0897 20.8796C69.1194 20.0776 69.0006 19.278 68.7939 18.5398C68.5865 17.7992 68.2611 17.0894 67.8769 16.4689C67.4902 15.8441 66.9863 15.2817 66.4267 14.7811C65.8629 14.2766 65.2117 13.8626 64.5332 13.5381C63.8538 13.2132 63.0873 12.9771 62.3205 12.8584L62.3197 12.8582C62.2103 12.8308 62.0811 12.7985 61.9484 12.7975L61.5765 12.7689L61.5765 12.7685H61.5649C61.5192 12.7685 61.4725 12.763 61.4114 12.7558L61.4046 12.755C61.3427 12.7477 61.2697 12.7394 61.1875 12.7394H60.81L60.8019 12.7394C60.6944 12.7394 60.5407 12.7394 60.4092 12.7698L60.0491 12.7975C59.9278 12.7984 59.7879 12.825 59.6761 12.8516C59.5483 12.8262 59.4013 12.828 59.2763 12.857C59.2556 12.8596 59.2388 12.8649 59.2281 12.8687C59.2205 12.8713 59.2136 12.8741 59.209 12.876L59.1973 12.8808C59.1878 12.8846 59.186 12.8846 59.1843 12.8846C59.1842 12.8846 59.1842 12.8846 59.1841 12.8846H59.1734L59.1629 12.8861C59.1286 12.891 59.0928 12.8967 59.0566 12.9028C59.0767 12.8844 59.0977 12.8651 59.1197 12.8449C59.1205 12.8444 59.1214 12.844 59.1222 12.8435C59.1384 12.8348 59.1515 12.8249 59.1602 12.8177C59.1762 12.8046 59.1918 12.789 59.2013 12.7795C59.2019 12.7789 59.2025 12.7783 59.203 12.7777C59.2082 12.7726 59.2121 12.7687 59.2151 12.7658L59.2221 12.7623L59.2232 12.7618C59.3379 12.7044 59.4568 12.6449 59.6046 12.5565C59.6578 12.5301 59.7181 12.5033 59.7821 12.4748L59.7839 12.474C59.8451 12.4468 59.9098 12.4181 59.9688 12.3889L60.3669 12.2467L60.3669 12.2468L60.3722 12.2448C60.5058 12.1913 60.6123 12.1644 60.7523 12.1364L60.7524 12.1364L60.7544 12.136L61.1598 12.0491C61.3096 12.0192 61.4381 11.9942 61.5359 11.9942H61.5459L61.5557 11.9929L61.9913 11.9348L61.9913 11.9351L62.0009 11.9332C62.0552 11.9223 62.1131 11.9216 62.1817 11.925C62.2008 11.926 62.2221 11.9274 62.2448 11.9289C62.2959 11.9323 62.3537 11.9361 62.407 11.9361C63.2914 11.9361 64.2028 12.0788 65.0556 12.3915C65.9107 12.705 66.7084 13.1609 67.4206 13.7592C68.1331 14.3577 68.729 15.0678 69.1541 15.9181L69.1541 15.9181L69.155 15.9199C69.5787 16.7391 69.7783 17.6469 69.8354 18.5319C69.8922 19.4126 69.7789 20.2974 69.6062 21.1617C69.4055 22.0209 69.1191 22.8228 68.7466 23.5963C68.3745 24.3692 67.9166 25.0846 67.3438 25.772C67.1318 26.0264 66.9059 26.2472 66.6697 26.478C66.5898 26.5561 66.5086 26.6355 66.4264 26.7176C66.1139 27.0014 65.7721 27.2579 65.4237 27.5192L65.4225 27.5201C65.1106 27.759 64.7941 27.9888 64.4807 28.2163C64.4531 28.2364 64.4255 28.2564 64.398 28.2764C64.0583 28.5231 63.7232 28.7678 63.4067 29.0166C62.7749 29.5133 62.2077 30.0335 61.8166 30.6352L61.8166 30.6351L61.8138 30.6397L61.8115 30.6436C61.7261 30.7858 61.6366 30.935 61.576 31.0563C61.5408 31.1267 61.5157 31.2029 61.4993 31.2685ZM61.4887 31.4536L61.5359 31.5009C61.5359 31.5098 61.5359 31.5195 61.5359 31.5299V31.6171C61.5226 31.6062 61.5057 31.5885 61.4939 31.562C61.4847 31.5414 61.4808 31.5206 61.4809 31.5009C61.481 31.4842 61.4838 31.4682 61.4887 31.4536ZM61.6487 31.6511C61.6487 31.651 61.6495 31.6507 61.651 31.6503C61.6495 31.6509 61.6487 31.6512 61.6487 31.6511Z" fill="#4A4967" stroke="#4A4967" stroke-width="0.3"/>
<path d="M58.6853 57.2259C58.6853 57.3035 58.7118 57.3799 58.7691 57.4372C58.8265 57.4945 58.9028 57.521 58.9805 57.521C59.0772 57.521 59.152 57.4723 59.1986 57.419C59.2427 57.3686 59.2756 57.2984 59.2756 57.2259V13.0927C59.2756 13.015 59.2491 12.9387 59.1918 12.8814C59.1345 12.824 59.0581 12.7975 58.9805 12.7975H37.1462C37.0685 12.7975 36.9922 12.824 36.9348 12.8814C36.8775 12.9387 36.851 13.015 36.851 13.0927C36.851 13.1703 36.8775 13.2467 36.9348 13.304C36.9922 13.3613 37.0685 13.3879 37.1462 13.3879H58.6853V57.2259Z" fill="#4A4967" stroke="#4A4967" stroke-width="0.3"/>
<path d="M16.3861 37.7192H16.5361V37.5692V13.4169H24.8062H24.9562V13.2669V12.9766V12.8266H24.8062H16.0957H15.9457V12.9766V37.5692V37.7192H16.0957H16.3861Z" fill="#4A4967" stroke="#4A4967" stroke-width="0.3"/>
<path d="M53.6757 16.9075C53.6757 17.1105 53.5231 17.2631 53.3201 17.2631C53.1171 17.2631 52.9645 17.1105 52.9645 16.9075C52.9645 16.7045 53.1171 16.5519 53.3201 16.5519C53.5053 16.5519 53.6757 16.7087 53.6757 16.9075Z" fill="#4A4967" stroke="#4A4967" stroke-width="0.3"/>
</svg>
