<svg width="290" height="242" viewBox="0 0 290 242" fill="none" xmlns="http://www.w3.org/2000/svg">
<path d="M202.279 116.245L248.143 115.771L249.227 207.732L203.364 208.206L202.279 116.245ZM191.63 116.303L175.009 116.46L176.093 208.421L192.715 208.265L191.63 116.303ZM118.29 117.05L119.432 209.218L165.295 208.744L164.211 116.783L118.29 117.05ZM191.188 85.8948L174.567 86.0514L174.925 111.358L191.547 111.201L191.188 85.8948ZM108.345 86.8276L108.704 112.134L164.07 111.474L163.711 86.1675L108.345 86.8276ZM202.196 111.142L258.709 110.609L258.35 85.3034L201.837 85.8359L202.196 111.142ZM198.643 53.5169C201.38 48.9686 204.324 44.3631 209.205 40.334C210.477 39.3124 211.806 38.4977 213.399 37.8326C214.992 37.1676 216.849 36.6522 218.82 36.5507C220.792 36.4491 223.142 36.911 224.931 37.7516C226.719 38.5923 228.21 39.9612 229.438 41.1806L229.759 41.5371L229.816 41.744L230.195 42.3075C230.516 42.6641 230.837 43.0206 230.952 43.4345C231.388 44.2048 232.03 44.918 232.466 45.6884C233.339 47.2291 234.062 49.0341 234.166 51.0108C234.477 52.9303 234.375 54.9643 233.952 56.6418C233.528 58.3193 232.899 60.054 231.948 61.4321C230.311 64.3381 228.237 66.4737 226.049 68.1954C223.918 70.1241 221.408 71.4893 219.162 73.0041C214.349 75.6772 209.57 77.6723 204.528 79.5178C202.109 80.4119 199.634 81.0991 197.009 82.0504C194.534 82.7376 192.058 83.4248 189.319 83.9623L189.112 84.0196L188.906 84.0769C188.7 84.1341 188.436 83.9845 188.379 83.7776C188.057 83.421 188 83.2141 187.943 83.0072C187.828 82.5934 187.919 82.1223 187.862 81.9153C187.896 81.2373 187.93 80.5593 188.17 79.8241C188.444 78.4108 188.776 77.2044 189.108 75.9981C189.771 73.5853 190.583 70.9084 191.66 68.3812C193.754 63.1198 195.964 58.2722 198.643 53.5169ZM204.412 57.4872C201.239 61.2651 198.123 65.2499 195.535 69.5341C194.138 71.7048 192.947 73.8182 191.813 76.1385C191.218 77.1952 190.68 78.4589 190.348 79.6652C190.05 80.1936 190.016 80.8716 189.718 81.4C189.569 81.6641 189.627 81.8711 189.684 82.078C194.314 80.347 198.979 77.9381 203.173 75.4368C207.573 72.8782 211.595 69.7561 215.353 66.4844C217.128 64.8772 218.904 63.27 220.416 61.5131C221.929 59.7563 223.177 57.8498 223.864 56.3219C224.7 54.53 224.768 53.174 224.629 51.8752C224.285 50.6337 223.676 49.2426 222.185 47.8736C221.6 47.3674 221.016 46.8612 220.488 46.5619C219.961 46.2626 219.697 46.113 219.078 46.2848C217.932 46.1573 216.339 46.8223 214.597 47.7515C212.912 48.8876 211.079 50.2879 209.303 51.8952C207.642 53.9162 205.866 55.5234 204.412 57.4872ZM168.629 46.2484C167.193 41.0756 166.112 35.5813 166.831 29.3648C167.048 27.7446 167.322 26.3313 167.952 24.5966C168.581 22.8618 169.474 21.2768 170.837 19.7841C172.201 18.2914 174.091 17.098 176.097 16.3184C178.103 15.5389 179.868 15.4946 181.633 15.4503L182.046 15.3357L182.252 15.2785L182.928 15.3136C183.398 15.406 183.811 15.2915 184.281 15.3838C185.221 15.5686 185.898 15.6037 186.895 15.9954C188.569 16.4222 190.358 17.2628 191.791 18.4249C193.431 19.5297 194.716 20.9559 195.645 22.7036C196.517 24.2444 197.183 25.8424 197.643 27.4977C198.504 30.6014 198.483 33.7273 198.404 36.6462C198.12 39.6224 197.514 42.2421 196.908 44.8617C195.489 50.1582 193.543 55.1555 191.276 59.7962C190.143 62.1165 189.009 64.4369 187.67 66.8145C186.536 69.1348 185.139 71.3055 183.535 73.5335L183.329 73.5907L183.18 73.8549C182.974 73.9122 182.767 73.9694 182.561 74.0267C182.091 73.9343 182.091 73.9343 181.827 73.7847C181.506 73.4281 181.242 73.2785 180.979 73.1288C180.6 72.5653 180.015 72.0591 179.637 71.4957C178.879 70.3687 178.122 69.2418 177.571 68.0575C176.263 65.7464 175.161 63.378 174.059 61.0095C172.062 56.2154 170.271 51.364 168.629 46.2484ZM175.609 44.9794C175.899 50.0248 176.807 54.8983 177.773 59.9787C178.462 62.4617 178.945 65.0019 179.841 67.4276C180.185 68.6691 180.736 69.8533 181.287 71.0375C181.459 71.6583 181.838 72.2217 182.159 72.5783C182.217 72.7852 182.538 73.1418 182.538 73.1418C184.598 68.5584 186.132 63.6756 187.459 58.8502C188.728 53.8178 189.585 48.9 189.765 43.9471C189.959 41.4419 189.946 38.9941 189.784 36.8104C189.623 34.6268 189.197 32.2935 188.531 30.6954C187.808 28.8905 187.051 27.7635 185.938 26.958C184.884 26.3594 183.416 25.8754 181.387 25.77C180.504 25.7922 179.828 25.757 179.415 25.8716C179.003 25.9861 178.59 26.1006 178.086 26.6863C177.376 27.3291 176.483 28.9142 175.968 31.0628C175.396 33.0044 175.145 35.3026 175.158 37.7504C175.32 39.9341 175.333 42.3819 175.609 44.9794ZM146.772 72.3724C142.232 69.6215 137.633 66.6636 133.607 61.7641C132.586 60.4876 131.771 59.1537 131.105 57.5556C130.44 55.9576 129.923 54.0954 129.818 52.1186C129.714 50.1419 130.171 47.7864 131.007 45.9944C132.049 44.1452 133.206 42.7098 134.42 41.4813L134.776 41.1598L134.982 41.1025L135.543 40.7238C135.898 40.4024 136.254 40.0809 136.666 39.9664C137.434 39.5304 138.144 38.8876 138.912 38.4516C140.448 37.5796 142.247 36.8573 144.219 36.7558C146.133 36.4473 148.162 36.5526 149.836 36.9794C151.716 37.349 153.241 38.0399 154.617 38.9951C157.518 40.6412 159.651 42.7233 161.372 44.92C163.299 47.0593 164.871 49.5201 166.179 51.8313C168.853 56.6606 170.85 61.4547 172.699 66.513C173.594 68.9387 174.283 71.4216 175.236 74.0542C175.925 76.5372 176.615 79.0202 177.155 81.7673L177.212 81.9742L177.27 82.1811C177.327 82.388 177.178 82.6522 176.972 82.7095C176.617 83.0309 176.411 83.0882 176.204 83.1455C175.792 83.26 175.322 83.1676 175.115 83.2249C174.439 83.1897 173.763 83.1546 173.029 82.9126C171.619 82.6355 170.415 82.301 169.211 81.9666C166.804 81.2978 164.132 80.4793 161.61 79.3967C156.358 77.2886 151.52 75.0661 146.772 72.3724ZM150.988 66.7452C154.761 69.9321 158.74 73.0618 163.018 75.6631C165.185 77.0672 167.295 78.2643 169.611 79.4043C170.666 80.0028 171.927 80.5442 173.131 80.8786C173.658 81.1779 174.335 81.213 174.862 81.5123C175.126 81.6619 175.332 81.6047 175.539 81.5474C173.805 76.9029 171.395 72.2233 168.894 68.0148C166.335 63.5994 163.215 59.5627 159.945 55.7902C158.34 54.0074 156.734 52.2246 154.979 50.706C153.224 49.1873 151.321 47.9329 149.796 47.2419C148.007 46.4013 146.654 46.331 145.359 46.4677C144.121 46.8113 142.735 47.4191 141.371 48.9118C140.867 49.4974 140.363 50.083 140.008 50.4045C139.71 50.9328 139.561 51.197 139.734 51.8177C139.608 52.9668 140.274 54.5649 141.204 56.3126C142.339 58.003 143.739 59.8431 145.345 61.6259C147.157 63.3514 148.969 65.077 150.988 66.7452Z" fill="white"/>
<path d="M113.393 161.407L112.174 175.33C112.014 176.47 111.164 177.373 110.172 177.563L81.5724 180.351L83.4542 159.219C93.1181 158.423 102.625 158.503 111.879 159.16C112.818 159.35 113.553 160.267 113.393 161.407Z" fill="white"/>
<path d="M108.546 180.375L106.208 207.064C106.052 208.183 105.218 209.068 104.245 209.255L81.3968 211.563L84.0646 180.818L106.913 178.51C107.933 178.47 108.702 179.256 108.546 180.375Z" fill="white"/>
<path d="M54.3508 181.053L77.2072 178.744L74.5409 209.238L51.6845 211.547C50.6638 211.587 49.9907 210.835 50.0004 209.795L52.3396 183.098C52.4462 182.092 53.3301 181.093 54.3508 181.053Z" fill="white"/>
<path d="M47.9641 162.506C57.782 159.942 67.2981 158.066 76.7087 156.945L74.8889 177.822L46.4155 180.705C45.3816 180.746 44.6997 179.984 44.7095 178.932L45.922 165.102C46.0324 163.821 46.978 162.695 47.9641 162.506Z" fill="white"/>
<path d="M76.754 125.941C76.8034 125.829 76.8034 125.829 76.754 125.941C76.9014 125.862 76.9014 125.862 76.754 125.941C76.9014 125.862 76.8034 125.829 76.754 125.941Z" fill="white"/>
<path d="M40.5685 129.717C40.5685 129.717 55.2508 163.359 75.0931 156.093C75.4465 156.08 75.8493 156.219 76.2541 156.088C77.8199 155.95 79.3426 154.846 80.5633 153.638C80.512 153.756 80.512 153.756 80.4606 153.874C80.3064 154.228 80.405 154.535 80.5036 154.841C80.7522 155.335 81.1549 155.474 81.5577 155.614C81.9604 155.753 82.2624 155.858 82.6159 155.845C84.0789 155.944 85.4927 155.89 86.8571 155.682C89.6866 155.303 92.619 154.688 95.4569 153.223C98.0913 151.961 100.775 150.851 103.562 149.505C104.93 148.755 106.399 148.041 107.873 146.784C108.635 146.096 109.449 145.29 110.166 143.907C110.475 143.198 110.734 142.336 110.74 141.522C110.746 140.709 110.6 139.978 110.403 139.366L110.253 139.178L110.105 138.719C110.007 138.413 109.805 138.343 109.707 138.037C109.355 137.779 109.055 137.403 108.704 137.145C108.053 136.512 107.399 136.15 106.746 135.787C105.287 135.146 103.826 134.775 102.363 134.676C99.3364 134.443 96.0999 135.226 93.2107 136.808C92.9065 136.974 92.4503 137.224 92.1462 137.391L91.8421 137.557L91.69 137.641L91.5379 137.724L91.0303 138.092C90.3193 138.661 89.6597 139.113 89.0493 139.717C87.88 140.808 86.8093 142.204 85.8906 143.518C86.6655 141.203 87.1877 138.936 87.5085 136.6C87.9918 132.824 88.0724 128.909 87.142 125.187C86.7024 123.267 85.9588 121.513 84.6089 119.822C83.9083 119.035 83.107 118.214 82.0016 117.559C81.4489 117.231 80.8448 117.022 80.0886 116.896C79.7866 116.791 79.4331 116.805 78.8783 116.748C78.6256 116.797 78.4242 116.727 78.3235 116.692L78.2228 116.657L78.1222 116.622L77.8694 116.671C76.655 117.066 75.1857 117.78 73.967 118.718C72.7484 119.655 71.9325 120.732 71.1166 121.809C69.7376 123.915 68.9134 126.077 68.3933 128.072C67.4538 132.098 67.3732 136.013 67.4468 139.574C67.6211 143.17 68.1488 146.752 69.3875 149.765C69.9812 151.33 70.7269 152.813 71.8282 154.01C71.9782 154.198 71.9677 155.554 72.1177 155.742C64.3811 157.548 56.0543 144.193 60.2949 130.977C48.1482 135.199 40.5685 129.717 40.5685 129.717ZM81.6729 153.75C81.7757 153.514 82.1312 153.229 82.3861 152.909C83.4568 151.513 84.0734 150.095 84.8914 148.746C85.6087 147.363 86.4266 146.015 87.2425 144.938C88.2105 143.778 89.2277 142.77 90.2429 142.034C90.7505 141.666 91.3588 141.333 91.967 141L92.4232 140.75L92.5753 140.667C92.5753 140.667 92.5753 140.667 92.676 140.702L92.9287 140.653C93.2329 140.487 93.4856 140.439 93.7898 140.272C96.27 139.364 98.6434 139.234 100.912 139.612C101.97 139.843 103.078 140.227 103.932 140.659C104.787 141.091 105.387 141.843 105.584 142.455C105.533 142.573 105.278 142.893 104.923 143.178C104.109 143.984 102.942 144.803 101.774 145.622C99.4398 147.261 96.8526 148.948 94.1647 150.6C91.7809 152.086 89.2471 153.383 86.5655 154.222C85.2503 154.582 83.8345 154.907 82.6242 154.76C82.2708 154.773 82.0694 154.703 81.7674 154.599C81.4653 154.494 81.264 154.424 81.2147 154.271C81.5702 153.986 81.4695 153.952 81.6729 153.75ZM76.3138 154.885C74.898 155.21 73.4905 154.45 72.5906 153.322C71.6907 152.195 71.0456 150.747 70.7047 149.134C69.9715 146.024 69.9472 142.616 70.4284 139.112C70.8583 135.725 71.995 132.312 73.6823 129.497C74.5003 128.149 75.4189 126.836 76.2327 126.03C76.6396 125.627 77.0465 125.224 77.2993 125.176C77.6034 125.009 77.7041 125.044 77.7555 124.926L77.8562 124.961C77.9568 124.995 78.0575 125.03 78.1582 125.065C78.4603 125.17 78.7109 125.393 79.163 125.685C79.915 126.354 80.4614 127.495 81.1086 128.671C82.1994 131.225 82.8833 134.181 83.1111 137.388C83.3388 140.594 83.1103 144.05 82.1257 147.38C81.6591 148.986 80.9397 150.641 80.0703 152.107C79.051 153.385 77.7296 154.559 76.3138 154.885Z" fill="white"/>
</svg>
