<svg width="196" height="164" viewBox="0 0 196 164" fill="none" xmlns="http://www.w3.org/2000/svg">
<path d="M137.093 78.667L168.13 78.3464L168.864 140.58L137.827 140.901L137.093 78.667ZM129.886 78.7068L118.638 78.8128L119.372 141.046L130.62 140.94L129.886 78.7068ZM80.2539 79.212L81.0269 141.586L112.064 141.265L111.33 79.0315L80.2539 79.212ZM129.587 58.1282L118.339 58.2342L118.581 75.3597L129.83 75.2537L129.587 58.1282ZM73.5241 58.7594L73.7667 75.885L111.235 75.4383L110.992 58.3127L73.5241 58.7594ZM137.036 75.2139L175.281 74.8535L175.038 57.7279L136.794 58.0883L137.036 75.2139ZM134.632 36.2169C136.485 33.1389 138.476 30.0221 141.78 27.2955C142.64 26.6041 143.54 26.0528 144.618 25.6027C145.696 25.1527 146.952 24.8039 148.287 24.7352C149.621 24.6664 151.211 24.979 152.422 25.5479C153.632 26.1168 154.641 27.0432 155.472 27.8684L155.689 28.1097L155.728 28.2497L155.984 28.631C156.202 28.8723 156.419 29.1136 156.497 29.3937C156.792 29.915 157.226 30.3976 157.522 30.919C158.112 31.9617 158.601 33.1832 158.672 34.5209C158.882 35.8199 158.813 37.1964 158.527 38.3316C158.24 39.4668 157.814 40.6407 157.171 41.5734C156.063 43.5399 154.659 44.9852 153.178 46.1503C151.736 47.4555 150.038 48.3794 148.518 49.4046C145.261 51.2136 142.027 52.5637 138.614 53.8126C136.978 54.4177 135.302 54.8827 133.526 55.5265C131.851 55.9916 130.176 56.4566 128.322 56.8204L128.182 56.8592L128.043 56.8979C127.903 56.9367 127.725 56.8354 127.686 56.6954C127.468 56.4541 127.429 56.314 127.391 56.174C127.313 55.894 127.375 55.5752 127.336 55.4351C127.359 54.9763 127.382 54.5175 127.544 54.0199C127.73 53.0635 127.955 52.2471 128.179 51.4307C128.628 49.7979 129.178 47.9863 129.906 46.2761C131.324 42.7155 132.819 39.4349 134.632 36.2169ZM138.536 38.9037C136.388 41.4603 134.28 44.157 132.529 47.0563C131.583 48.5252 130.777 49.9555 130.01 51.5257C129.607 52.2409 129.243 53.096 129.018 53.9124C128.817 54.27 128.794 54.7288 128.592 55.0863C128.492 55.2651 128.53 55.4052 128.569 55.5452C131.703 54.3738 134.859 52.7436 137.697 51.0508C140.675 49.3194 143.397 47.2065 145.94 44.9925C147.142 43.9048 148.344 42.8171 149.367 41.6282C150.39 40.4393 151.235 39.149 151.7 38.1151C152.265 36.9024 152.311 35.9848 152.218 35.1058C151.985 34.2657 151.573 33.3243 150.564 32.3978C150.168 32.0553 149.772 31.7127 149.415 31.5101C149.058 31.3076 148.88 31.2063 148.461 31.3226C147.685 31.2363 146.607 31.6864 145.428 32.3152C144.289 33.084 143.048 34.0317 141.846 35.1194C140.722 36.4871 139.52 37.5747 138.536 38.9037ZM114.32 31.298C113.349 27.7974 112.617 24.0792 113.104 19.8722C113.25 18.7757 113.436 17.8193 113.862 16.6454C114.288 15.4714 114.892 14.3988 115.815 13.3886C116.737 12.3784 118.017 11.5708 119.374 11.0433C120.732 10.5157 121.926 10.4857 123.121 10.4557L123.4 10.3782L123.54 10.3395L123.997 10.3633C124.315 10.4258 124.595 10.3483 124.913 10.4108C125.549 10.5358 126.007 10.5596 126.682 10.8247C127.814 11.1135 129.025 11.6824 129.995 12.4688C131.105 13.2164 131.974 14.1816 132.603 15.3644C133.193 16.4071 133.644 17.4885 133.955 18.6087C134.538 20.7091 134.524 22.8245 134.471 24.7998C134.278 26.8139 133.868 28.5867 133.458 30.3595C132.498 33.9439 131.181 37.3257 129.647 40.4663C128.88 42.0365 128.113 43.6068 127.206 45.2158C126.439 46.7861 125.493 48.2551 124.408 49.7628L124.268 49.8015L124.168 49.9803C124.028 50.0191 123.888 50.0578 123.749 50.0966C123.431 50.0341 123.431 50.0341 123.252 49.9328C123.035 49.6915 122.856 49.5902 122.678 49.489C122.422 49.1076 122.026 48.7651 121.77 48.3837C121.257 47.6211 120.745 46.8584 120.372 46.057C119.487 44.493 118.741 42.8902 117.995 41.2874C116.644 38.043 115.432 34.7599 114.32 31.298ZM119.044 30.4392C119.24 33.8536 119.855 37.1517 120.508 40.5898C120.975 42.2701 121.302 43.9892 121.908 45.6307C122.141 46.4709 122.514 47.2723 122.887 48.0737C123.003 48.4938 123.259 48.8751 123.477 49.1164C123.516 49.2564 123.733 49.4977 123.733 49.4977C125.127 46.396 126.165 43.0916 127.063 39.8261C127.922 36.4205 128.502 33.0924 128.624 29.7406C128.755 28.0453 128.746 26.3887 128.637 24.911C128.528 23.4332 128.24 21.8542 127.789 20.7727C127.3 19.5512 126.787 18.7886 126.034 18.2435C125.32 17.8384 124.327 17.5108 122.954 17.4395C122.357 17.4545 121.899 17.4307 121.62 17.5082C121.341 17.5857 121.061 17.6632 120.72 18.0595C120.24 18.4946 119.635 19.5673 119.287 21.0213C118.9 22.3353 118.73 23.8905 118.739 25.5471C118.848 27.0249 118.857 28.6814 119.044 30.4392ZM99.5293 48.9771C96.4562 47.1154 93.3443 45.1137 90.6195 41.7981C89.9286 40.9341 89.3773 40.0315 88.9268 38.95C88.4762 37.8686 88.1264 36.6083 88.0558 35.2706C87.9852 33.9328 88.2946 32.3388 88.8602 31.1261C89.5654 29.8747 90.3483 28.9033 91.1701 28.0719L91.4105 27.8543L91.5501 27.8156L91.9301 27.5593C92.1704 27.3418 92.4108 27.1242 92.69 27.0467C93.2096 26.7517 93.6903 26.3166 94.2099 26.0216C95.249 25.4315 96.4667 24.9427 97.8009 24.874C99.0963 24.6652 100.469 24.7365 101.602 25.0253C102.875 25.2754 103.907 25.743 104.838 26.3894C106.801 27.5034 108.245 28.9124 109.409 30.399C110.713 31.8468 111.777 33.5121 112.662 35.0761C114.472 38.3443 115.823 41.5886 117.074 45.0118C117.68 46.6533 118.147 48.3336 118.792 50.1152C119.258 51.7955 119.725 53.4758 120.09 55.3349L120.129 55.475L120.168 55.615C120.207 55.755 120.106 55.9338 119.967 55.9725C119.726 56.1901 119.587 56.2288 119.447 56.2676C119.168 56.3451 118.85 56.2826 118.71 56.3213C118.252 56.2976 117.795 56.2738 117.298 56.11C116.344 55.9224 115.529 55.6961 114.714 55.4698C113.085 55.0172 111.277 54.4633 109.57 53.7306C106.016 52.3041 102.742 50.8 99.5293 48.9771ZM102.382 45.1689C104.935 47.3256 107.628 49.4436 110.523 51.204C111.99 52.1542 113.417 52.9644 114.985 53.7358C115.699 54.1409 116.552 54.5072 117.367 54.7335C117.724 54.9361 118.182 54.9598 118.539 55.1624C118.717 55.2636 118.857 55.2249 118.996 55.1861C117.823 52.043 116.192 48.8762 114.5 46.0281C112.768 43.0401 110.656 40.3083 108.444 37.7553C107.357 36.5488 106.27 35.3423 105.083 34.3146C103.895 33.2869 102.607 32.4379 101.575 31.9703C100.365 31.4014 99.4493 31.3539 98.5727 31.4464C97.7351 31.6789 96.7966 32.0902 95.8741 33.1004C95.533 33.4967 95.1919 33.893 94.9515 34.1105C94.75 34.4681 94.6493 34.6469 94.7659 35.067C94.681 35.8446 95.1316 36.9261 95.7606 38.1088C96.5293 39.2528 97.4764 40.498 98.5631 41.7045C99.7895 42.8722 101.016 44.04 102.382 45.1689Z" fill="#F7EDE3"/>
<path d="M76.9404 109.23L76.1149 118.652C76.0071 119.424 75.4317 120.035 74.7602 120.163L55.406 122.05L56.6794 107.749C63.2193 107.211 69.6532 107.265 75.9158 107.71C76.5513 107.838 77.0482 108.458 76.9404 109.23Z" fill="#F7EDE3"/>
<path d="M73.6592 122.066L72.0767 140.127C71.971 140.885 71.4067 141.484 70.7482 141.61L55.2861 143.172L57.0915 122.366L72.5535 120.804C73.244 120.777 73.7649 121.309 73.6592 122.066Z" fill="#F7EDE3"/>
<path d="M36.9832 122.525L52.4511 120.962L50.6467 141.599L35.1789 143.162C34.4882 143.189 34.0326 142.679 34.0392 141.976L35.6222 123.909C35.6944 123.228 36.2925 122.552 36.9832 122.525Z" fill="#F7EDE3"/>
<path d="M32.6613 109.974C39.3054 108.238 45.7453 106.969 52.1139 106.21L50.8823 120.338L31.6133 122.29C30.9136 122.317 30.4522 121.802 30.4588 121.09L31.2793 111.731C31.354 110.864 31.994 110.101 32.6613 109.974Z" fill="#F7EDE3"/>
<path d="M52.145 85.2287C52.1782 85.1528 52.1782 85.1528 52.145 85.2287C52.2442 85.1755 52.2442 85.1755 52.145 85.2287C52.2442 85.1755 52.1782 85.1528 52.145 85.2287Z" fill="#F7EDE3"/>
<path d="M27.657 87.784C27.657 87.784 37.5931 110.551 51.0211 105.634C51.2603 105.625 51.5328 105.719 51.8068 105.63C52.8664 105.537 53.8969 104.79 54.723 103.972C54.6882 104.052 54.6882 104.052 54.6535 104.132C54.5491 104.372 54.6159 104.579 54.6826 104.786C54.8508 105.121 55.1234 105.215 55.3959 105.309C55.6685 105.404 55.8729 105.475 56.112 105.466C57.1021 105.533 58.0589 105.496 58.9822 105.356C60.8971 105.099 62.8815 104.683 64.802 103.692C66.5848 102.837 68.401 102.086 70.2868 101.175C71.2129 100.668 72.2073 100.185 73.2044 99.3338C73.7204 98.8685 74.2711 98.3232 74.7565 97.3871C74.9652 96.9073 75.1404 96.3239 75.1447 95.7733C75.1489 95.2226 75.0502 94.7283 74.9168 94.314L74.8153 94.1868L74.7152 93.8761C74.6485 93.6689 74.5122 93.6217 74.4455 93.4145C74.2077 93.2401 74.0047 92.9857 73.7669 92.8113C73.3261 92.3825 72.884 92.1373 72.4418 91.8921C71.4545 91.4579 70.4658 91.2074 69.4757 91.1404C67.4274 90.9827 65.2372 91.512 63.2819 92.5829C63.0761 92.6956 62.7674 92.8647 62.5615 92.9774L62.3557 93.0901L62.2528 93.1465L62.1499 93.2028L61.8064 93.4519C61.3252 93.8372 60.8788 94.1427 60.4658 94.5516C59.6744 95.2897 58.9498 96.2348 58.3282 97.1236C58.8526 95.557 59.2059 94.0231 59.423 92.442C59.7501 89.8867 59.8046 87.2371 59.175 84.7184C58.8775 83.4191 58.3743 82.2325 57.4608 81.0878C56.9866 80.5554 56.4444 79.9994 55.6963 79.5562C55.3222 79.3346 54.9134 79.1929 54.4017 79.1076C54.1973 79.0368 53.9581 79.0459 53.5826 79.0078C53.4116 79.0406 53.2753 78.9934 53.2072 78.9697L53.1391 78.9461L53.0709 78.9225L52.8999 78.9553C52.078 79.2226 51.0837 79.7062 50.259 80.3407C49.4343 80.9751 48.8822 81.704 48.33 82.4328C47.3968 83.8578 46.839 85.3209 46.487 86.6712C45.8513 89.3955 45.7967 92.0452 45.8465 94.4549C45.9645 96.8883 46.3216 99.3125 47.1599 101.351C47.5617 102.411 48.0663 103.414 48.8116 104.224C48.9131 104.351 48.906 105.269 49.0075 105.396C43.7719 106.619 38.1368 97.5806 41.0065 88.637C32.7865 91.4938 27.657 87.784 27.657 87.784ZM55.4739 104.048C55.5435 103.888 55.7841 103.696 55.9565 103.479C56.6811 102.534 57.0984 101.575 57.6519 100.662C58.1374 99.7261 58.6909 98.8137 59.2431 98.0848C59.8981 97.2996 60.5865 96.6179 61.2735 96.1198C61.617 95.8708 62.0287 95.6453 62.4403 95.4199L62.749 95.2508L62.8519 95.1944C62.8519 95.1944 62.8519 95.1944 62.9201 95.2181L63.0911 95.1853C63.2969 95.0726 63.468 95.0398 63.6738 94.9271C65.3523 94.3125 66.9584 94.2249 68.4936 94.4808C69.2098 94.6369 69.9593 94.8966 70.5377 95.1891C71.1162 95.4816 71.5222 95.9903 71.6556 96.4046C71.6208 96.4846 71.4484 96.7009 71.2078 96.8936C70.6571 97.4389 69.8671 97.9934 69.0772 98.5478C67.4974 99.6568 65.7465 100.798 63.9275 101.916C62.3143 102.922 60.5997 103.8 58.7849 104.367C57.8949 104.611 56.9367 104.831 56.1177 104.731C55.8785 104.741 55.7422 104.693 55.5378 104.623C55.3334 104.552 55.1971 104.504 55.1638 104.401C55.4044 104.208 55.3362 104.185 55.4739 104.048ZM51.8472 104.816C50.889 105.036 49.9366 104.522 49.3276 103.759C48.7186 102.996 48.282 102.016 48.0513 100.924C47.5551 98.8198 47.5387 96.5136 47.8643 94.1419C48.1552 91.8502 48.9244 89.5402 50.0663 87.6354C50.6199 86.723 51.2416 85.8342 51.7923 85.2889C52.0676 85.0162 52.343 84.7436 52.5141 84.7108C52.7199 84.5981 52.788 84.6217 52.8228 84.5417L52.8909 84.5653C52.9591 84.589 53.0272 84.6126 53.0953 84.6362C53.2997 84.707 53.4694 84.8578 53.7753 85.0558C54.2842 85.5082 54.654 86.2805 55.092 87.0764C55.8302 88.8045 56.293 90.8053 56.4471 92.9751C56.6013 95.1449 56.4466 97.4839 55.7803 99.7375C55.4645 100.824 54.9777 101.944 54.3894 102.936C53.6996 103.801 52.8053 104.596 51.8472 104.816Z" fill="#F7EDE3"/>
</svg>
