<svg width="73" height="72" viewBox="0 0 73 72" fill="none" xmlns="http://www.w3.org/2000/svg">
<path d="M33.9795 71.9999L30.8055 44.3937L3.17383 40.8497L28.3784 28.1657L23.3375 2.05176L42.9411 20.8911L66.4654 9.32637L54.3298 32.6424L72.9999 52.4145L46.8618 47.1917L33.9795 71.9999Z" fill="#FFA608"/>
<path d="M0 38.7979C2.05371 37.4922 4.10742 36.3731 5.97442 35.2539L12.1355 31.7098C16.243 29.4715 20.3504 27.2332 24.6445 25.1813L24.0844 26.3005C23.3376 22.0104 22.5908 17.5337 21.844 13.2435C21.0972 8.76684 20.5371 4.47668 20.1637 0C21.4706 4.29016 22.4041 8.58031 23.3376 12.8705C24.2711 17.1606 25.2046 21.6373 25.9514 25.9275C26.1381 26.487 25.7647 26.8601 25.3913 27.0466C21.2839 29.0984 16.9898 31.1503 12.6957 33.0155L6.34783 35.8135C4.29412 36.9326 2.24041 37.8653 0 38.7979Z" fill="#231F20"/>
<path d="M30.6189 69.9481C29.6854 65.4714 28.9386 60.8082 28.1918 56.3315C27.445 51.8549 26.8849 47.1916 26.3248 42.5284L27.2583 43.4611C22.5908 42.9015 18.11 42.1554 13.6292 41.4093L6.72123 40.2901C4.48082 39.7305 2.24041 39.3574 0 38.7979C2.24041 38.7979 4.66752 38.9844 6.90793 39.1709L13.8159 39.7305C18.4834 40.1036 22.9642 40.6631 27.6317 41.2227C28.1918 41.2227 28.5652 41.7823 28.5652 42.1554C29.1253 46.8186 29.4987 51.2953 29.8721 55.9585C30.2455 60.6217 30.6189 65.2849 30.6189 69.9481Z" fill="#231F20"/>
<path d="M69.8263 50.3628C65.3455 49.9897 61.0514 49.2436 56.5705 48.4975C52.0897 47.7514 47.7956 47.0053 43.5015 46.0726L44.6217 45.513C42.3813 49.6167 40.3276 53.7203 37.9005 57.8239L34.3532 63.9794C33.0463 66.0312 31.926 67.8965 30.6191 69.9483C31.5526 67.7099 32.4861 65.6581 33.4197 63.4198L36.4069 57.0778C38.4606 52.7876 40.5143 48.684 42.7547 44.5804C42.9414 44.2073 43.5015 43.8343 43.8749 44.0208C48.169 44.9534 52.6498 45.8861 56.944 47.0053C61.2381 47.9379 65.5322 49.0571 69.8263 50.3628Z" fill="#231F20"/>
<path d="M63.2913 7.27441C59.9307 15.4817 56.1967 23.3159 52.0893 31.1501L51.9026 29.8444C55.0765 33.2019 58.0637 36.5594 61.0509 39.9169C62.5445 41.5957 64.0381 43.2744 65.5317 45.1397C67.0253 47.005 68.3322 48.6837 69.8258 50.549C68.1455 49.0568 66.4652 47.5646 64.7849 45.8858C63.1046 44.3936 61.4243 42.7148 59.9307 41.2226C56.7568 38.0516 53.5829 34.6941 50.4089 31.5231C50.0355 31.1501 50.0355 30.5905 50.2222 30.2174C54.3297 22.1967 58.4371 14.549 63.2913 7.27441Z" fill="#231F20"/>
<path d="M20.1641 0C22.0311 1.3057 23.7114 2.98446 25.3917 4.29016C27.072 5.78238 28.7523 7.27461 30.4326 8.76684C33.7932 11.7513 37.1538 14.9223 40.3277 18.0933L39.2075 17.9067C47.049 13.9896 55.0771 10.2591 63.2919 7.08808C55.8239 11.7513 47.9825 15.8549 40.141 19.772C39.7676 19.9586 39.2075 19.9586 38.8341 19.5855C35.6602 16.4145 32.2996 13.2435 29.3124 9.88601C27.8188 8.20726 26.1385 6.5285 24.6449 4.84974C23.1513 3.35751 21.6577 1.67876 20.1641 0Z" fill="#231F20"/>
</svg>
